<?xml version="1.0" encoding="UTF-8"?>
<svg width="1050px" height="1050px" viewBox="0 0 1050 1050" version="1.1" xmlns="http://www.w3.org/2000/svg" xmlns:xlink="http://www.w3.org/1999/xlink">
    <!-- Generator: Sketch 53.2 (72643) - https://sketchapp.com -->
    <title>Artboard</title>
    <desc>Created with Sketch.</desc>
    <defs>
        <linearGradient x1="0.104288499%" y1="50.0524887%" x2="100.651267%" y2="50.0524887%" id="linearGradient-1">
            <stop stop-color="#FFFFFF" offset="0%"></stop>
            <stop stop-color="#0D006A" offset="41.79%"></stop>
            <stop stop-color="#3172F4" stop-opacity="0.8" offset="100%"></stop>
        </linearGradient>
        <linearGradient x1="-0.122054381%" y1="49.9786561%" x2="99.9827795%" y2="49.9786561%" id="linearGradient-2">
            <stop stop-color="#3172F4" stop-opacity="0.8" offset="0%"></stop>
            <stop stop-color="#0D006A" offset="55.23%"></stop>
            <stop stop-color="#FFFFFF" offset="100%"></stop>
        </linearGradient>
        <linearGradient x1="0.104288499%" y1="50.0524887%" x2="100.651267%" y2="50.0524887%" id="linearGradient-3">
            <stop stop-color="#FFFFFF" offset="0%"></stop>
            <stop stop-color="#161617" offset="41.79%"></stop>
            <stop stop-color="#2F3238" stop-opacity="0.8" offset="100%"></stop>
        </linearGradient>
        <linearGradient x1="50%" y1="0%" x2="51.5127579%" y2="67.1072595%" id="linearGradient-4">
            <stop stop-color="#E3E3E7" offset="0%"></stop>
            <stop stop-color="#B7B6BE" offset="100%"></stop>
        </linearGradient>
        <linearGradient x1="50%" y1="0%" x2="50.9593738%" y2="67.1072595%" id="linearGradient-5">
            <stop stop-color="#E3E3E7" offset="0%"></stop>
            <stop stop-color="#B7B6BE" offset="100%"></stop>
        </linearGradient>
        <linearGradient x1="0.104288499%" y1="50.0524887%" x2="100.651267%" y2="50.0524887%" id="linearGradient-6">
            <stop stop-color="#FFFFFF" offset="0%"></stop>
            <stop stop-color="#0D006A" offset="41.79%"></stop>
            <stop stop-color="#3172F4" stop-opacity="0.8" offset="100%"></stop>
        </linearGradient>
        <linearGradient x1="-0.122054381%" y1="49.9786561%" x2="99.9827795%" y2="49.9786561%" id="linearGradient-7">
            <stop stop-color="#3172F4" stop-opacity="0.8" offset="0%"></stop>
            <stop stop-color="#0D006A" offset="55.23%"></stop>
            <stop stop-color="#FFFFFF" offset="100%"></stop>
        </linearGradient>
        <linearGradient x1="43.0479286%" y1="0%" x2="57.421512%" y2="129.666703%" id="linearGradient-8">
            <stop stop-color="#FFFFFF" stop-opacity="0.173978365" offset="0%"></stop>
            <stop stop-color="#FFFFFF" offset="100%"></stop>
        </linearGradient>
        <rect id="path-9" x="161" y="126" width="58" height="308"></rect>
        <mask id="mask-10" maskContentUnits="userSpaceOnUse" maskUnits="objectBoundingBox" x="0" y="0" width="58" height="308" fill="white">
            <use xlink:href="#path-9"></use>
        </mask>
        <rect id="path-11" x="778" y="126" width="58" height="308"></rect>
        <mask id="mask-12" maskContentUnits="userSpaceOnUse" maskUnits="objectBoundingBox" x="0" y="0" width="58" height="308" fill="white">
            <use xlink:href="#path-11"></use>
        </mask>
        <linearGradient x1="-146.04676%" y1="49.5916598%" x2="259.284873%" y2="50.6506223%" id="linearGradient-13">
            <stop stop-color="#FFFFFF" stop-opacity="0.173978365" offset="0%"></stop>
            <stop stop-color="#FFFFFF" offset="100%"></stop>
        </linearGradient>
        <rect id="path-14" x="161" y="126" width="675" height="61"></rect>
        <mask id="mask-15" maskContentUnits="userSpaceOnUse" maskUnits="objectBoundingBox" x="0" y="0" width="675" height="61" fill="white">
            <use xlink:href="#path-14"></use>
        </mask>
        <rect id="path-16" x="161" y="373" width="675" height="61"></rect>
        <mask id="mask-17" maskContentUnits="userSpaceOnUse" maskUnits="objectBoundingBox" x="0" y="0" width="675" height="61" fill="white">
            <use xlink:href="#path-16"></use>
        </mask>
        <linearGradient x1="50%" y1="0%" x2="105.984692%" y2="120.402245%" id="linearGradient-18">
            <stop stop-color="#FFFFFF" offset="0%"></stop>
            <stop stop-color="#3056B6" offset="100%"></stop>
        </linearGradient>
        <linearGradient x1="48.236255%" y1="-146.559127%" x2="158.784396%" y2="129.457924%" id="linearGradient-19">
            <stop stop-color="#FFFFFF" offset="0%"></stop>
            <stop stop-color="#091A68" offset="100%"></stop>
        </linearGradient>
        <linearGradient x1="26.4514435%" y1="-146.559127%" x2="1502.42967%" y2="129.457924%" id="linearGradient-20">
            <stop stop-color="#FFFFFF" offset="0%"></stop>
            <stop stop-color="#091A68" offset="100%"></stop>
        </linearGradient>
        <linearGradient x1="4.58564875%" y1="-146.559127%" x2="2851.06982%" y2="129.457924%" id="linearGradient-21">
            <stop stop-color="#FFFFFF" offset="0%"></stop>
            <stop stop-color="#091A68" offset="100%"></stop>
        </linearGradient>
        <linearGradient x1="9.55413903%" y1="-146.559127%" x2="2544.6229%" y2="129.457924%" id="linearGradient-22">
            <stop stop-color="#FFFFFF" offset="0%"></stop>
            <stop stop-color="#091A68" offset="100%"></stop>
        </linearGradient>
        <linearGradient x1="36.9198716%" y1="-146.559127%" x2="856.757159%" y2="129.457924%" id="linearGradient-23">
            <stop stop-color="#FFFFFF" offset="0%"></stop>
            <stop stop-color="#091A68" offset="100%"></stop>
        </linearGradient>
        <linearGradient x1="48.6837254%" y1="-146.559127%" x2="131.185284%" y2="129.457924%" id="linearGradient-24">
            <stop stop-color="#FFFFFF" offset="0%"></stop>
            <stop stop-color="#091A68" offset="100%"></stop>
        </linearGradient>
        <linearGradient x1="0%" y1="-146.559127%" x2="3133.90381%" y2="129.457924%" id="linearGradient-25">
            <stop stop-color="#FFFFFF" offset="0%"></stop>
            <stop stop-color="#091A68" offset="100%"></stop>
        </linearGradient>
        <linearGradient x1="18.8197247%" y1="-146.559127%" x2="1973.1394%" y2="129.457924%" id="linearGradient-26">
            <stop stop-color="#FFFFFF" offset="0%"></stop>
            <stop stop-color="#091A68" offset="100%"></stop>
        </linearGradient>
        <linearGradient x1="29.5622993%" y1="-146.559127%" x2="1310.55806%" y2="129.457924%" id="linearGradient-27">
            <stop stop-color="#FFFFFF" offset="0%"></stop>
            <stop stop-color="#091A68" offset="100%"></stop>
        </linearGradient>
        <linearGradient x1="2.71858531%" y1="-146.559127%" x2="2966.2267%" y2="129.457924%" id="linearGradient-28">
            <stop stop-color="#FFFFFF" offset="0%"></stop>
            <stop stop-color="#091A68" offset="100%"></stop>
        </linearGradient>
        <linearGradient x1="40.0038593%" y1="0%" x2="60.671133%" y2="129.666703%" id="linearGradient-29">
            <stop stop-color="#FFFFFF" stop-opacity="0.173978365" offset="0%"></stop>
            <stop stop-color="#FFFFFF" offset="100%"></stop>
        </linearGradient>
        <rect id="path-30" x="357" y="187" width="42" height="186"></rect>
        <mask id="mask-31" maskContentUnits="userSpaceOnUse" maskUnits="objectBoundingBox" x="0" y="0" width="42" height="186" fill="white">
            <use xlink:href="#path-30"></use>
        </mask>
        <linearGradient x1="-146.04676%" y1="49.1773912%" x2="259.284873%" y2="51.3106906%" id="linearGradient-32">
            <stop stop-color="#FFFFFF" stop-opacity="0.173978365" offset="0%"></stop>
            <stop stop-color="#FFFFFF" offset="100%"></stop>
        </linearGradient>
        <rect id="path-33" x="357" y="186" width="421" height="54"></rect>
        <mask id="mask-34" maskContentUnits="userSpaceOnUse" maskUnits="objectBoundingBox" x="0" y="0" width="421" height="54" fill="white">
            <use xlink:href="#path-33"></use>
        </mask>
        <linearGradient x1="-146.04676%" y1="49.453851%" x2="259.284873%" y2="50.8701978%" id="linearGradient-35">
            <stop stop-color="#FFFFFF" stop-opacity="0.173978365" offset="0%"></stop>
            <stop stop-color="#FFFFFF" offset="100%"></stop>
        </linearGradient>
        <rect id="path-36" x="357" y="329" width="421" height="44"></rect>
        <mask id="mask-37" maskContentUnits="userSpaceOnUse" maskUnits="objectBoundingBox" x="0" y="0" width="421" height="44" fill="white">
            <use xlink:href="#path-36"></use>
        </mask>
        <linearGradient x1="-146.04676%" y1="48.1038781%" x2="259.284873%" y2="53.0211556%" id="linearGradient-38">
            <stop stop-color="#FFFFFF" stop-opacity="0.173978365" offset="0%"></stop>
            <stop stop-color="#FFFFFF" offset="100%"></stop>
        </linearGradient>
        <rect id="path-39" x="398" y="249" width="380" height="74"></rect>
        <mask id="mask-40" maskContentUnits="userSpaceOnUse" maskUnits="objectBoundingBox" x="0" y="0" width="380" height="74" fill="white">
            <use xlink:href="#path-39"></use>
        </mask>
    </defs>
    <g id="Artboard" stroke="none" stroke-width="1" fill="none" fill-rule="evenodd">
        <rect id="Rectangle" fill="#FFFFFF" x="0" y="233" width="1050" height="817"></rect>
        <g id="identitylogo-copy" transform="translate(229.000000, 913.000000)">
            <path d="M0.230645161,20.9807487 L0.230645161,21.0016043" id="Path" stroke="#A8AFBA" stroke-width="0.5"></path>
            <path d="M7.52741935,21.231016 L7.52741935,21.2518717" id="Path" stroke="#A8AFBA" stroke-width="0.5"></path>
            <path d="M29.5016129,24.3385027 C29.5016129,32.3679144 22.9596774,38.8957219 14.8870968,38.8957219 C6.81451613,38.8957219 0.272580645,32.3679144 0.272580645,24.3385027 C0.272580645,16.3090909 6.81451613,9.78128342 14.8870968,9.78128342 C22.9596774,9.78128342 29.5016129,16.2882353 29.5016129,24.3385027 Z" id="Path"></path>
            <path d="M7.48548387,3.60802139 C7.48548387,5.58930481 5.87096774,7.19518717 3.87903226,7.19518717 C1.88709677,7.19518717 0.272580645,5.58930481 0.272580645,3.60802139 C0.272580645,1.62673797 1.88709677,0.020855615 3.87903226,0.020855615 C5.87096774,0.020855615 7.48548387,1.62673797 7.48548387,3.60802139" id="Path" fill="#3172F4" fill-rule="nonzero"></path>
            <g id="Group" transform="translate(0.209677, 9.593583)">
                <path d="M10.1274194,20.959893 C11.4064516,21.8775401 12.9790323,22.4197861 14.6774194,22.4197861 C15.7887097,22.4197861 16.8580645,22.1695187 17.8225806,21.7524064 C18.283871,21.8983957 19.8145161,22.4197861 19.8564516,22.2737968 C19.8983871,22.1695187 19.5419355,21.4604278 19.3322581,20.8764706 C21.1983871,19.4791444 22.4145161,17.2475936 22.4145161,14.7240642 C22.4145161,10.4695187 18.9548387,7.02834225 14.6774194,7.02834225 C12.6854839,7.02834225 10.8822581,7.77914439 9.4983871,8.98877005 L9.54032258,14.5780749 L10.1274194,20.959893 Z" id="Path"></path>
                <path d="M14.6774194,0.16684492 C12.8322581,0.16684492 11.0709677,0.500534759 9.43548387,1.12620321 C4.2983871,3.08663102 0.54516129,7.82085561 0.0838709677,13.4935829 L0.0838709677,14.3903743 L0.0838709677,15.9545455 C0.0838709677,16.0588235 0.10483871,16.1839572 0.10483871,16.2882353 C0.629032258,19.7919786 2.68387097,22.8786096 5.91290323,25.1727273 C5.95483871,25.2352941 6.01774194,25.297861 6.08064516,25.3187166 L7.19193548,27.2374332 C8.32419355,27.9048128 9.54032258,28.4262032 10.8403226,28.7807487 C12.0564516,29.1144385 13.3354839,29.2812834 14.6774194,29.2812834 C22.7709677,29.2812834 29.333871,22.7534759 29.333871,14.7032086 C29.3129032,6.69465241 22.75,0.16684492 14.6774194,0.16684492 Z M19.3112903,20.8973262 C19.5209677,21.4812834 19.8774194,22.1903743 19.8354839,22.2946524 C19.7935484,22.4406417 18.2419355,21.940107 17.8016129,21.773262 C16.8370968,22.1903743 15.7887097,22.4406417 14.6564516,22.4406417 C12.9580645,22.4406417 11.3854839,21.8983957 10.1064516,20.9807487 C8.17741935,19.5625668 6.91935484,17.3101604 6.91935484,14.7449198 C6.91935484,12.4716578 7.90483871,10.4278075 9.47741935,9.00962567 C10.8403226,7.77914439 12.6645161,7.04919786 14.6564516,7.04919786 C18.933871,7.04919786 22.3935484,10.4903743 22.3935484,14.7449198 C22.4145161,17.2475936 21.1983871,19.4791444 19.3112903,20.8973262 Z" id="Shape" fill="#3172F4" fill-rule="nonzero"></path>
                <path d="M6.91935484,14.7449198 C6.91935484,12.4716578 7.90483871,10.4278075 9.47741935,9.00962567 L9.41451613,1.12620321 C4.27741935,3.08663102 0.524193548,7.82085561 0.0629032258,13.4935829 L0.0629032258,14.3903743 L0.0629032258,15.9545455 C0.0629032258,16.0588235 0.0838709677,16.1839572 0.0838709677,16.2882353 C0.608064516,19.7919786 2.66290323,22.8786096 5.89193548,25.1727273 C5.93387097,25.2352941 5.99677419,25.297861 6.05967742,25.3187166 L7.17096774,27.2374332 C8.30322581,27.9048128 9.51935484,28.4262032 10.8193548,28.7807487 L10.1064516,20.9390374 C8.17741935,19.5625668 6.91935484,17.3101604 6.91935484,14.7449198 Z" id="Path" fill="url(#linearGradient-1)" fill-rule="nonzero" opacity="0.3"></path>
            </g>
            <path d="M0.293548387,9.71871658 L0.293548387,11.8459893 L0.293548387,22.6700535 L0.293548387,22.7326203 L0.293548387,24.0048128 L0.293548387,25.7149733 C0.65,29.302139 2.22258065,32.4304813 4.71774194,34.7663102 C4.73870968,34.828877 4.78064516,34.8914439 4.84354839,34.9122995 L5.03225806,35.0582888 C5.57741935,35.5379679 6.14354839,35.9759358 6.7516129,36.3930481 L7.46451613,36.9352941 L7.46451613,24.1925134 L7.46451613,14.0983957 C5.53548387,12.0545455 3.08225806,10.5112299 0.293548387,9.71871658" id="Path" fill="#3172F4" fill-rule="nonzero"></path>
            <g id="Group" transform="translate(10.274194, 10.427807)" fill-rule="nonzero">
                <path d="M15.9774194,4.71336898 L15.9774194,9.73957219 L15.9774194,15.4331551 C15.6,19.1245989 13.8177419,19.6877005 11.1967742,22.0652406 C10.5258065,22.6700535 9.81290323,23.2331551 9.03709677,23.7128342 L9.03709677,21.3352941 C8.55483871,21.2101604 7.98870968,21.0224599 7.75806452,20.9390374 C6.79354839,21.3561497 5.74516129,21.6064171 4.61290323,21.6064171 C2.91451613,21.6064171 1.34193548,21.0641711 0.0629032258,20.1465241 L0.775806452,27.9882353 C1.99193548,28.3219251 3.27096774,28.4887701 4.61290323,28.4887701 C12.7064516,28.4887701 19.2693548,21.9609626 19.2693548,13.9106952 C19.2483871,10.4278075 18.0322581,7.2368984 15.9774194,4.71336898 Z" id="Path" fill="#3172F4"></path>
                <path d="M11.1967742,22.0860963 C13.8177419,19.7294118 15.6,19.1663102 15.9774194,15.4540107 L15.9774194,9.76042781 L15.9774194,4.7342246 C14.1951613,2.54438503 11.783871,0.896791444 9.03709677,0.020855615 L9.03709677,4.71336898 L9.03709677,7.61229947 C11.05,9.00962567 12.35,11.3037433 12.35,13.9315508 C12.35,16.4342246 11.133871,18.6657754 9.26774194,20.0839572 C9.47741935,20.6679144 9.83387097,21.3770053 9.79193548,21.4812834 C9.77096774,21.5438503 9.43548387,21.4812834 9.03709677,21.3770053 L9.03709677,23.7545455 C9.81290323,23.2331551 10.5258065,22.6909091 11.1967742,22.0860963 Z" id="Path" fill="#3172F4"></path>
                <path d="M12.35,21.1058824 C12.3709677,21.1058824 12.35,21.126738 12.35,21.1058824 C14.3629032,19.4582888 15.6419355,18.6032086 15.9774194,15.4540107 L15.9774194,9.76042781 L15.9774194,4.7342246 C14.1951613,2.54438503 11.783871,0.896791444 9.03709677,0.020855615 L9.03709677,4.71336898 L9.03709677,7.61229947 C11.05,9.00962567 12.35,11.3037433 12.35,13.9315508 C12.35,16.2882353 12.35,20.8139037 12.3290323,21.126738 C12.3080645,21.126738 12.3290323,21.126738 12.35,21.1058824 Z" id="Path" fill="url(#linearGradient-2)" opacity="0.3"></path>
            </g>
            <path d="M29.5225806,0 L29.5225806,19.1037433 L29.5225806,24.7973262 C29.1451613,28.4887701 27.3629032,29.0518717 24.7419355,31.4294118 C24.0709677,32.0342246 23.3580645,32.5973262 22.5822581,33.0770053 L22.5822581,22.9203209 L22.5822581,14.0566845 L22.5822581,4.25454545 C24.4274194,2.25240642 26.8177419,0.771657754 29.5225806,0" id="Path" fill="#3172F4" fill-rule="nonzero"></path>
            <g id="Group" transform="translate(37.322581, 9.593583)">
                <polygon id="Path" fill="#000000" fill-rule="nonzero" points="2.62096774 17.7064171 0.188709677 17.7064171 0.188709677 4.85935829 2.62096774 4.85935829"></polygon>
                <path d="M16.4596774,17.7064171 L14.0903226,17.7064171 L14.0903226,16.4550802 L14.0483871,16.4550802 C13.1677419,17.4144385 11.8467742,17.9149733 10.1903226,17.9149733 C6.14354839,17.9149733 4.10967742,15.1620321 4.10967742,11.4080214 C4.10967742,7.59144385 6.14354839,4.77593583 10.1903226,4.77593583 C11.783871,4.77593583 13.2096774,5.38074866 14.0483871,6.34010695 L14.0903226,6.34010695 L14.0903226,0.0625668449 L16.4596774,0.0625668449 L16.4596774,17.7064171 Z M10.3580645,6.90320856 C7.59032258,6.90320856 6.47903226,8.82192513 6.47903226,11.3663102 C6.47903226,13.9106952 7.5483871,15.7668449 10.3580645,15.7668449 C13.1677419,15.7668449 14.2370968,13.9106952 14.2370968,11.3663102 C14.2370968,8.80106952 13.1887097,6.90320856 10.3580645,6.90320856 Z" id="Shape" fill="#000000" fill-rule="nonzero"></path>
                <path d="M30.3612903,12.3673797 L20.0451613,12.3673797 L20.2967742,12.6176471 C20.6532258,14.5989305 21.9532258,15.8085561 24.2596774,15.8085561 C25.6016129,15.8085561 26.7129032,15.328877 27.7403226,14.3695187 L29.3758065,15.9962567 C27.9290323,17.3101604 26.2306452,17.9149733 24.2806452,17.9149733 C19.8774194,17.9149733 17.8435484,15.0994652 17.8435484,11.4497326 C17.8435484,7.59144385 20.1709677,4.77593583 24.1967742,4.77593583 C28.4532258,4.77593583 30.466129,7.6540107 30.466129,11.4497326 C30.4241935,11.7417112 30.4032258,12.0336898 30.3612903,12.3673797 Z M28.1806452,10.3026738 L27.9290323,10.0524064 C27.5516129,8.11283422 26.3354839,6.86149733 24.1548387,6.86149733 C21.8903226,6.86149733 20.7370968,8.17540107 20.3387097,10.0524064 L20.066129,10.3026738 L28.1806452,10.3026738 Z" id="Shape" fill="#000000" fill-rule="nonzero"></path>
                <path d="M43.5290323,17.7064171 L41.1596774,17.7064171 L41.1596774,10.0106952 C41.1596774,8.17540107 40.6145161,6.88235294 37.8467742,6.88235294 C35.7709677,6.88235294 34.1564516,8.00855615 34.1564516,10.1775401 L34.1564516,17.7064171 L31.7870968,17.7064171 L31.7870968,4.96363636 L34.1564516,4.96363636 L34.1564516,6.34010695 L34.1983871,6.34010695 C35.0790323,5.35989305 36.6096774,4.75508021 38.1193548,4.75508021 C41.4532258,4.75508021 43.5290323,6.50695187 43.5290323,9.65614973 L43.5290323,17.7064171 L43.5290323,17.7064171 Z" id="Path" fill="#000000" fill-rule="nonzero"></path>
                <path d="M53.5306452,16.3925134 C52.1467742,17.4352941 51.0145161,17.9149733 49.6516129,17.9149733 C47.1983871,17.9149733 45.7725806,16.3508021 45.7725806,13.7647059 L45.7725806,7.25775401 L45.9193548,7.00748663 L44.3048387,7.00748663 L44.3048387,4.96363636 L45.9193548,4.96363636 L45.7725806,4.71336898 L45.7725806,1.27219251 L48.1419355,0.020855615 L48.1419355,4.71336898 L48.016129,4.96363636 L52.0419355,4.96363636 L52.0419355,7.00748663 L48.016129,7.00748663 L48.1419355,7.25775401 L48.1419355,13.7855615 C48.1419355,15.1203209 48.7709677,15.7877005 49.7564516,15.7877005 C50.5532258,15.7877005 51.1193548,15.5374332 51.9580645,14.8074866 L53.5306452,16.3925134 Z" id="Path" fill="#000000" fill-rule="nonzero"></path>
                <path d="M55.1451613,3.0657754 C54.2435484,3.0657754 53.7193548,2.44010695 53.7193548,1.56417112 C53.7193548,0.688235294 54.2645161,0.0625668449 55.1451613,0.0625668449 C56.0467742,0.0625668449 56.5709677,0.688235294 56.5709677,1.56417112 C56.5709677,2.44010695 56.0258065,3.0657754 55.1451613,3.0657754 Z M56.3403226,17.497861 L53.9709677,17.497861 L53.9709677,4.75508021 L56.3403226,4.75508021 L56.3403226,17.497861 Z" id="Shape" fill="#000000" fill-rule="nonzero"></path>
                <path d="M66.4258065,16.3925134 C65.0419355,17.4352941 63.9096774,17.9149733 62.5467742,17.9149733 C60.0935484,17.9149733 58.6677419,16.3508021 58.6677419,13.7647059 L58.6677419,7.25775401 L58.8145161,7.00748663 L57.2,7.00748663 L57.2,4.96363636 L58.8145161,4.96363636 L58.6677419,4.71336898 L58.6677419,1.27219251 L61.0370968,0.020855615 L61.0370968,4.71336898 L60.9112903,4.96363636 L64.9370968,4.96363636 L64.9370968,7.00748663 L60.9112903,7.00748663 L61.0370968,7.25775401 L61.0370968,13.7855615 C61.0370968,15.1203209 61.666129,15.7877005 62.6516129,15.7877005 C63.4483871,15.7877005 64.0145161,15.5374332 64.8532258,14.8074866 L66.4258065,16.3925134 Z" id="Path" fill="#000000" fill-rule="nonzero"></path>
                <g transform="translate(66.048387, 2.711230)" id="Path">
                    <polygon points="6.43709677 8.17540107 7.00322581 9.90641711 7.04516129 9.90641711 7.59032258 8.17540107 10.5048387 0.959358289 3.18709677 0.959358289"></polygon>
                    <path d="M11.3225806,0.12513369 L11.3225806,0.959358289 L10.483871,0.959358289 L7.56935484,8.17540107 L7.02419355,9.8855615 L6.98225806,9.8855615 L6.41612903,8.17540107 L3.18709677,0.959358289 L2.66290323,0.959358289 L2.66290323,0.145989305 L0.188709677,0.145989305 L5.85,12.3673797 C5.2,13.9524064 4.44516129,14.6614973 3.52258065,14.6614973 C2.80967742,14.6614973 2.03387097,14.4737968 1.13225806,13.9941176 L1.13225806,16.2673797 C1.97096774,16.684492 2.80967742,16.8513369 3.77419355,16.8513369 C5.51451613,16.8513369 6.94032258,15.6625668 7.71612903,13.8064171 L13.5032258,0.12513369 L11.3225806,0.12513369 Z" fill="#000000" fill-rule="nonzero"></path>
                    <polygon fill="#000000" fill-rule="nonzero" points="3.18709677 0.959358289 2.83064516 0.145989305 2.66290323 0.145989305 2.66290323 0.959358289"></polygon>
                    <polyline fill="#000000" fill-rule="nonzero" points="10.8193548 0.145989305 10.5048387 0.959358289 11.3225806 0.959358289 11.3225806 0.12513369"></polyline>
                </g>
            </g>
            <path d="M38.9790323,12.5550802 C38.0774194,12.5550802 37.5532258,11.9294118 37.5532258,11.0534759 C37.5532258,10.1775401 38.0983871,9.55187166 38.9790323,9.55187166 C39.8806452,9.55187166 40.4048387,10.1775401 40.4048387,11.0534759 C40.4048387,11.9294118 39.8596774,12.5550802 38.9790323,12.5550802 Z" id="Path" fill="#000000" fill-rule="nonzero"></path>
        </g>
        <g id="identitylogo-copy-3" transform="translate(703.000000, 913.000000)">
            <path d="M0.230645161,20.9807487 L0.230645161,21.0016043" id="Path" stroke="#A8AFBA" stroke-width="0.5"></path>
            <path d="M7.52741935,21.231016 L7.52741935,21.2518717" id="Path" stroke="#A8AFBA" stroke-width="0.5"></path>
            <path d="M29.5016129,24.3385027 C29.5016129,32.3679144 22.9596774,38.8957219 14.8870968,38.8957219 C6.81451613,38.8957219 0.272580645,32.3679144 0.272580645,24.3385027 C0.272580645,16.3090909 6.81451613,9.78128342 14.8870968,9.78128342 C22.9596774,9.78128342 29.5016129,16.2882353 29.5016129,24.3385027 Z" id="Path"></path>
            <path d="M7.48548387,3.60802139 C7.48548387,5.58930481 5.87096774,7.19518717 3.87903226,7.19518717 C1.88709677,7.19518717 0.272580645,5.58930481 0.272580645,3.60802139 C0.272580645,1.62673797 1.88709677,0.020855615 3.87903226,0.020855615 C5.87096774,0.020855615 7.48548387,1.62673797 7.48548387,3.60802139" id="Path" fill="#000000" fill-rule="nonzero"></path>
            <g id="Group" transform="translate(0.209677, 9.593583)">
                <path d="M10.1274194,20.959893 C11.4064516,21.8775401 12.9790323,22.4197861 14.6774194,22.4197861 C15.7887097,22.4197861 16.8580645,22.1695187 17.8225806,21.7524064 C18.283871,21.8983957 19.8145161,22.4197861 19.8564516,22.2737968 C19.8983871,22.1695187 19.5419355,21.4604278 19.3322581,20.8764706 C21.1983871,19.4791444 22.4145161,17.2475936 22.4145161,14.7240642 C22.4145161,10.4695187 18.9548387,7.02834225 14.6774194,7.02834225 C12.6854839,7.02834225 10.8822581,7.77914439 9.4983871,8.98877005 L9.54032258,14.5780749 L10.1274194,20.959893 Z" id="Path"></path>
                <path d="M14.6774194,0.16684492 C12.8322581,0.16684492 11.0709677,0.500534759 9.43548387,1.12620321 C4.2983871,3.08663102 0.54516129,7.82085561 0.0838709677,13.4935829 L0.0838709677,14.3903743 L0.0838709677,15.9545455 C0.0838709677,16.0588235 0.10483871,16.1839572 0.10483871,16.2882353 C0.629032258,19.7919786 2.68387097,22.8786096 5.91290323,25.1727273 C5.95483871,25.2352941 6.01774194,25.297861 6.08064516,25.3187166 L7.19193548,27.2374332 C8.32419355,27.9048128 9.54032258,28.4262032 10.8403226,28.7807487 C12.0564516,29.1144385 13.3354839,29.2812834 14.6774194,29.2812834 C22.7709677,29.2812834 29.333871,22.7534759 29.333871,14.7032086 C29.3129032,6.69465241 22.75,0.16684492 14.6774194,0.16684492 Z M19.3112903,20.8973262 C19.5209677,21.4812834 19.8774194,22.1903743 19.8354839,22.2946524 C19.7935484,22.4406417 18.2419355,21.940107 17.8016129,21.773262 C16.8370968,22.1903743 15.7887097,22.4406417 14.6564516,22.4406417 C12.9580645,22.4406417 11.3854839,21.8983957 10.1064516,20.9807487 C8.17741935,19.5625668 6.91935484,17.3101604 6.91935484,14.7449198 C6.91935484,12.4716578 7.90483871,10.4278075 9.47741935,9.00962567 C10.8403226,7.77914439 12.6645161,7.04919786 14.6564516,7.04919786 C18.933871,7.04919786 22.3935484,10.4903743 22.3935484,14.7449198 C22.4145161,17.2475936 21.1983871,19.4791444 19.3112903,20.8973262 Z" id="Shape" fill="#000000" fill-rule="nonzero"></path>
                <path d="M6.91935484,14.7449198 C6.91935484,12.4716578 7.90483871,10.4278075 9.47741935,9.00962567 L9.41451613,1.12620321 C4.27741935,3.08663102 0.524193548,7.82085561 0.0629032258,13.4935829 L0.0629032258,14.3903743 L0.0629032258,15.9545455 C0.0629032258,16.0588235 0.0838709677,16.1839572 0.0838709677,16.2882353 C0.608064516,19.7919786 2.66290323,22.8786096 5.89193548,25.1727273 C5.93387097,25.2352941 5.99677419,25.297861 6.05967742,25.3187166 L7.17096774,27.2374332 C8.30322581,27.9048128 9.51935484,28.4262032 10.8193548,28.7807487 L10.1064516,20.9390374 C8.17741935,19.5625668 6.91935484,17.3101604 6.91935484,14.7449198 Z" id="Path" fill="url(#linearGradient-3)" fill-rule="nonzero" opacity="0.3"></path>
            </g>
            <path d="M0.293548387,9.71871658 L0.293548387,11.8459893 L0.293548387,22.6700535 L0.293548387,22.7326203 L0.293548387,24.0048128 L0.293548387,25.7149733 C0.65,29.302139 2.22258065,32.4304813 4.71774194,34.7663102 C4.73870968,34.828877 4.78064516,34.8914439 4.84354839,34.9122995 L5.03225806,35.0582888 C5.57741935,35.5379679 6.14354839,35.9759358 6.7516129,36.3930481 L7.46451613,36.9352941 L7.46451613,24.1925134 L7.46451613,14.0983957 C5.53548387,12.0545455 3.08225806,10.5112299 0.293548387,9.71871658" id="Path" fill="#000000" fill-rule="nonzero"></path>
            <g id="Group" transform="translate(10.274194, 10.427807)" fill="#000000" fill-rule="nonzero">
                <path d="M15.9774194,4.71336898 L15.9774194,9.73957219 L15.9774194,15.4331551 C15.6,19.1245989 13.8177419,19.6877005 11.1967742,22.0652406 C10.5258065,22.6700535 9.81290323,23.2331551 9.03709677,23.7128342 L9.03709677,21.3352941 C8.55483871,21.2101604 7.98870968,21.0224599 7.75806452,20.9390374 C6.79354839,21.3561497 5.74516129,21.6064171 4.61290323,21.6064171 C2.91451613,21.6064171 1.34193548,21.0641711 0.0629032258,20.1465241 L0.775806452,27.9882353 C1.99193548,28.3219251 3.27096774,28.4887701 4.61290323,28.4887701 C12.7064516,28.4887701 19.2693548,21.9609626 19.2693548,13.9106952 C19.2483871,10.4278075 18.0322581,7.2368984 15.9774194,4.71336898 Z" id="Path"></path>
                <path d="M11.1967742,22.0860963 C13.8177419,19.7294118 15.6,19.1663102 15.9774194,15.4540107 L15.9774194,9.76042781 L15.9774194,4.7342246 C14.1951613,2.54438503 11.783871,0.896791444 9.03709677,0.020855615 L9.03709677,4.71336898 L9.03709677,7.61229947 C11.05,9.00962567 12.35,11.3037433 12.35,13.9315508 C12.35,16.4342246 11.133871,18.6657754 9.26774194,20.0839572 C9.47741935,20.6679144 9.83387097,21.3770053 9.79193548,21.4812834 C9.77096774,21.5438503 9.43548387,21.4812834 9.03709677,21.3770053 L9.03709677,23.7545455 C9.81290323,23.2331551 10.5258065,22.6909091 11.1967742,22.0860963 Z" id="Path"></path>
                <path d="M12.35,21.1058824 C12.3709677,21.1058824 12.35,21.126738 12.35,21.1058824 C14.3629032,19.4582888 15.6419355,18.6032086 15.9774194,15.4540107 L15.9774194,9.76042781 L15.9774194,4.7342246 C14.1951613,2.54438503 11.783871,0.896791444 9.03709677,0.020855615 L9.03709677,4.71336898 L9.03709677,7.61229947 C11.05,9.00962567 12.35,11.3037433 12.35,13.9315508 C12.35,16.2882353 12.35,20.8139037 12.3290323,21.126738 C12.3080645,21.126738 12.3290323,21.126738 12.35,21.1058824 Z" id="Path" opacity="0.3"></path>
            </g>
            <path d="M29.5225806,0 L29.5225806,19.1037433 L29.5225806,24.7973262 C29.1451613,28.4887701 27.3629032,29.0518717 24.7419355,31.4294118 C24.0709677,32.0342246 23.3580645,32.5973262 22.5822581,33.0770053 L22.5822581,22.9203209 L22.5822581,14.0566845 L22.5822581,4.25454545 C24.4274194,2.25240642 26.8177419,0.771657754 29.5225806,0" id="Path" fill="#000000" fill-rule="nonzero"></path>
            <g id="Group" transform="translate(37.322581, 9.593583)">
                <polygon id="Path" fill="#000000" fill-rule="nonzero" points="2.62096774 17.7064171 0.188709677 17.7064171 0.188709677 4.85935829 2.62096774 4.85935829"></polygon>
                <path d="M16.4596774,17.7064171 L14.0903226,17.7064171 L14.0903226,16.4550802 L14.0483871,16.4550802 C13.1677419,17.4144385 11.8467742,17.9149733 10.1903226,17.9149733 C6.14354839,17.9149733 4.10967742,15.1620321 4.10967742,11.4080214 C4.10967742,7.59144385 6.14354839,4.77593583 10.1903226,4.77593583 C11.783871,4.77593583 13.2096774,5.38074866 14.0483871,6.34010695 L14.0903226,6.34010695 L14.0903226,0.0625668449 L16.4596774,0.0625668449 L16.4596774,17.7064171 Z M10.3580645,6.90320856 C7.59032258,6.90320856 6.47903226,8.82192513 6.47903226,11.3663102 C6.47903226,13.9106952 7.5483871,15.7668449 10.3580645,15.7668449 C13.1677419,15.7668449 14.2370968,13.9106952 14.2370968,11.3663102 C14.2370968,8.80106952 13.1887097,6.90320856 10.3580645,6.90320856 Z" id="Shape" fill="#000000" fill-rule="nonzero"></path>
                <path d="M30.3612903,12.3673797 L20.0451613,12.3673797 L20.2967742,12.6176471 C20.6532258,14.5989305 21.9532258,15.8085561 24.2596774,15.8085561 C25.6016129,15.8085561 26.7129032,15.328877 27.7403226,14.3695187 L29.3758065,15.9962567 C27.9290323,17.3101604 26.2306452,17.9149733 24.2806452,17.9149733 C19.8774194,17.9149733 17.8435484,15.0994652 17.8435484,11.4497326 C17.8435484,7.59144385 20.1709677,4.77593583 24.1967742,4.77593583 C28.4532258,4.77593583 30.466129,7.6540107 30.466129,11.4497326 C30.4241935,11.7417112 30.4032258,12.0336898 30.3612903,12.3673797 Z M28.1806452,10.3026738 L27.9290323,10.0524064 C27.5516129,8.11283422 26.3354839,6.86149733 24.1548387,6.86149733 C21.8903226,6.86149733 20.7370968,8.17540107 20.3387097,10.0524064 L20.066129,10.3026738 L28.1806452,10.3026738 Z" id="Shape" fill="#000000" fill-rule="nonzero"></path>
                <path d="M43.5290323,17.7064171 L41.1596774,17.7064171 L41.1596774,10.0106952 C41.1596774,8.17540107 40.6145161,6.88235294 37.8467742,6.88235294 C35.7709677,6.88235294 34.1564516,8.00855615 34.1564516,10.1775401 L34.1564516,17.7064171 L31.7870968,17.7064171 L31.7870968,4.96363636 L34.1564516,4.96363636 L34.1564516,6.34010695 L34.1983871,6.34010695 C35.0790323,5.35989305 36.6096774,4.75508021 38.1193548,4.75508021 C41.4532258,4.75508021 43.5290323,6.50695187 43.5290323,9.65614973 L43.5290323,17.7064171 L43.5290323,17.7064171 Z" id="Path" fill="#000000" fill-rule="nonzero"></path>
                <path d="M53.5306452,16.3925134 C52.1467742,17.4352941 51.0145161,17.9149733 49.6516129,17.9149733 C47.1983871,17.9149733 45.7725806,16.3508021 45.7725806,13.7647059 L45.7725806,7.25775401 L45.9193548,7.00748663 L44.3048387,7.00748663 L44.3048387,4.96363636 L45.9193548,4.96363636 L45.7725806,4.71336898 L45.7725806,1.27219251 L48.1419355,0.020855615 L48.1419355,4.71336898 L48.016129,4.96363636 L52.0419355,4.96363636 L52.0419355,7.00748663 L48.016129,7.00748663 L48.1419355,7.25775401 L48.1419355,13.7855615 C48.1419355,15.1203209 48.7709677,15.7877005 49.7564516,15.7877005 C50.5532258,15.7877005 51.1193548,15.5374332 51.9580645,14.8074866 L53.5306452,16.3925134 Z" id="Path" fill="#000000" fill-rule="nonzero"></path>
                <path d="M55.1451613,3.0657754 C54.2435484,3.0657754 53.7193548,2.44010695 53.7193548,1.56417112 C53.7193548,0.688235294 54.2645161,0.0625668449 55.1451613,0.0625668449 C56.0467742,0.0625668449 56.5709677,0.688235294 56.5709677,1.56417112 C56.5709677,2.44010695 56.0258065,3.0657754 55.1451613,3.0657754 Z M56.3403226,17.497861 L53.9709677,17.497861 L53.9709677,4.75508021 L56.3403226,4.75508021 L56.3403226,17.497861 Z" id="Shape" fill="#000000" fill-rule="nonzero"></path>
                <path d="M66.4258065,16.3925134 C65.0419355,17.4352941 63.9096774,17.9149733 62.5467742,17.9149733 C60.0935484,17.9149733 58.6677419,16.3508021 58.6677419,13.7647059 L58.6677419,7.25775401 L58.8145161,7.00748663 L57.2,7.00748663 L57.2,4.96363636 L58.8145161,4.96363636 L58.6677419,4.71336898 L58.6677419,1.27219251 L61.0370968,0.020855615 L61.0370968,4.71336898 L60.9112903,4.96363636 L64.9370968,4.96363636 L64.9370968,7.00748663 L60.9112903,7.00748663 L61.0370968,7.25775401 L61.0370968,13.7855615 C61.0370968,15.1203209 61.666129,15.7877005 62.6516129,15.7877005 C63.4483871,15.7877005 64.0145161,15.5374332 64.8532258,14.8074866 L66.4258065,16.3925134 Z" id="Path" fill="#000000" fill-rule="nonzero"></path>
                <g transform="translate(66.048387, 2.711230)" id="Path">
                    <polygon points="6.43709677 8.17540107 7.00322581 9.90641711 7.04516129 9.90641711 7.59032258 8.17540107 10.5048387 0.959358289 3.18709677 0.959358289"></polygon>
                    <path d="M11.3225806,0.12513369 L11.3225806,0.959358289 L10.483871,0.959358289 L7.56935484,8.17540107 L7.02419355,9.8855615 L6.98225806,9.8855615 L6.41612903,8.17540107 L3.18709677,0.959358289 L2.66290323,0.959358289 L2.66290323,0.145989305 L0.188709677,0.145989305 L5.85,12.3673797 C5.2,13.9524064 4.44516129,14.6614973 3.52258065,14.6614973 C2.80967742,14.6614973 2.03387097,14.4737968 1.13225806,13.9941176 L1.13225806,16.2673797 C1.97096774,16.684492 2.80967742,16.8513369 3.77419355,16.8513369 C5.51451613,16.8513369 6.94032258,15.6625668 7.71612903,13.8064171 L13.5032258,0.12513369 L11.3225806,0.12513369 Z" fill="#000000" fill-rule="nonzero"></path>
                    <polygon fill="#000000" fill-rule="nonzero" points="3.18709677 0.959358289 2.83064516 0.145989305 2.66290323 0.145989305 2.66290323 0.959358289"></polygon>
                    <polyline fill="#000000" fill-rule="nonzero" points="10.8193548 0.145989305 10.5048387 0.959358289 11.3225806 0.959358289 11.3225806 0.12513369"></polyline>
                </g>
            </g>
            <path d="M38.9790323,12.5550802 C38.0774194,12.5550802 37.5532258,11.9294118 37.5532258,11.0534759 C37.5532258,10.1775401 38.0983871,9.55187166 38.9790323,9.55187166 C39.8806452,9.55187166 40.4048387,10.1775401 40.4048387,11.0534759 C40.4048387,11.9294118 39.8596774,12.5550802 38.9790323,12.5550802 Z" id="Path" fill="#000000" fill-rule="nonzero"></path>
        </g>
        <g id="identitylogo-copy-2" transform="translate(467.000000, 913.000000)">
            <path d="M29.5016129,24.3385027 C29.5016129,32.3679144 22.9596774,38.8957219 14.8870968,38.8957219 C6.81451613,38.8957219 0.272580645,32.3679144 0.272580645,24.3385027 C0.272580645,16.3090909 6.81451613,9.78128342 14.8870968,9.78128342 C22.9596774,9.78128342 29.5016129,16.2882353 29.5016129,24.3385027 Z" id="Path"></path>
            <path d="M7.48548387,3.60802139 C7.48548387,5.58930481 5.87096774,7.19518717 3.87903226,7.19518717 C1.88709677,7.19518717 0.272580645,5.58930481 0.272580645,3.60802139 C0.272580645,1.62673797 1.88709677,0.020855615 3.87903226,0.020855615 C5.87096774,0.020855615 7.48548387,1.62673797 7.48548387,3.60802139" id="Path" fill="#C3C2CB" fill-rule="nonzero"></path>
            <g id="Group" transform="translate(0.209677, 9.593583)">
                <path d="M10.1274194,20.959893 C11.4064516,21.8775401 12.9790323,22.4197861 14.6774194,22.4197861 C15.7887097,22.4197861 16.8580645,22.1695187 17.8225806,21.7524064 C18.283871,21.8983957 19.8145161,22.4197861 19.8564516,22.2737968 C19.8983871,22.1695187 19.5419355,21.4604278 19.3322581,20.8764706 C21.1983871,19.4791444 22.4145161,17.2475936 22.4145161,14.7240642 C22.4145161,10.4695187 18.9548387,7.02834225 14.6774194,7.02834225 C12.6854839,7.02834225 10.8822581,7.77914439 9.4983871,8.98877005 L9.54032258,14.5780749 L10.1274194,20.959893 Z" id="Path"></path>
                <path d="M14.6774194,0.16684492 C12.8322581,0.16684492 11.0709677,0.500534759 9.43548387,1.12620321 C4.2983871,3.08663102 0.54516129,7.82085561 0.0838709677,13.4935829 L0.0838709677,14.3903743 L0.0838709677,15.9545455 C0.0838709677,16.0588235 0.10483871,16.1839572 0.10483871,16.2882353 C0.629032258,19.7919786 2.68387097,22.8786096 5.91290323,25.1727273 C5.95483871,25.2352941 6.01774194,25.297861 6.08064516,25.3187166 L7.19193548,27.2374332 C8.32419355,27.9048128 9.54032258,28.4262032 10.8403226,28.7807487 C12.0564516,29.1144385 13.3354839,29.2812834 14.6774194,29.2812834 C22.7709677,29.2812834 29.333871,22.7534759 29.333871,14.7032086 C29.3129032,6.69465241 22.75,0.16684492 14.6774194,0.16684492 Z M19.3112903,20.8973262 C19.5209677,21.4812834 19.8774194,22.1903743 19.8354839,22.2946524 C19.7935484,22.4406417 18.2419355,21.940107 17.8016129,21.773262 C16.8370968,22.1903743 15.7887097,22.4406417 14.6564516,22.4406417 C12.9580645,22.4406417 11.3854839,21.8983957 10.1064516,20.9807487 C8.17741935,19.5625668 6.91935484,17.3101604 6.91935484,14.7449198 C6.91935484,12.4716578 7.90483871,10.4278075 9.47741935,9.00962567 C10.8403226,7.77914439 12.6645161,7.04919786 14.6564516,7.04919786 C18.933871,7.04919786 22.3935484,10.4903743 22.3935484,14.7449198 C22.4145161,17.2475936 21.1983871,19.4791444 19.3112903,20.8973262 Z" id="Shape" fill="#B7B6BE" fill-rule="nonzero"></path>
                <path d="M6.91935484,14.7449198 C6.91935484,12.4716578 7.90483871,10.4278075 9.47741935,9.00962567 L9.41451613,1.12620321 C4.27741935,3.08663102 0.524193548,7.82085561 0.0629032258,13.4935829 L0.0629032258,14.3903743 L0.0629032258,15.9545455 C0.0629032258,16.0588235 0.0838709677,16.1839572 0.0838709677,16.2882353 C0.608064516,19.7919786 2.66290323,22.8786096 5.89193548,25.1727273 C5.93387097,25.2352941 5.99677419,25.297861 6.05967742,25.3187166 L7.17096774,27.2374332 C8.30322581,27.9048128 9.51935484,28.4262032 10.8193548,28.7807487 L10.1064516,20.9390374 C8.17741935,19.5625668 6.91935484,17.3101604 6.91935484,14.7449198 Z" id="Path" fill="#B7B6BE" fill-rule="nonzero" opacity="0.3"></path>
            </g>
            <path d="M0.293548387,9.71871658 L0.293548387,11.8459893 L0.293548387,22.6700535 L0.293548387,22.7326203 L0.293548387,24.0048128 L0.293548387,25.7149733 C0.65,29.302139 2.22258065,32.4304813 4.71774194,34.7663102 C4.73870968,34.828877 4.78064516,34.8914439 4.84354839,34.9122995 L5.03225806,35.0582888 C5.57741935,35.5379679 6.14354839,35.9759358 6.7516129,36.3930481 L7.46451613,36.9352941 L7.46451613,24.1925134 L7.46451613,14.0983957 C5.53548387,12.0545455 3.08225806,10.5112299 0.293548387,9.71871658" id="Path" fill="url(#linearGradient-4)" fill-rule="nonzero"></path>
            <g id="Group" transform="translate(10.274194, 10.427807)" fill="#B7B6BE" fill-rule="nonzero">
                <path d="M15.9774194,4.71336898 L15.9774194,9.73957219 L15.9774194,15.4331551 C15.6,19.1245989 13.8177419,19.6877005 11.1967742,22.0652406 C10.5258065,22.6700535 9.81290323,23.2331551 9.03709677,23.7128342 L9.03709677,21.3352941 C8.55483871,21.2101604 7.98870968,21.0224599 7.75806452,20.9390374 C6.79354839,21.3561497 5.74516129,21.6064171 4.61290323,21.6064171 C2.91451613,21.6064171 1.34193548,21.0641711 0.0629032258,20.1465241 L0.775806452,27.9882353 C1.99193548,28.3219251 3.27096774,28.4887701 4.61290323,28.4887701 C12.7064516,28.4887701 19.2693548,21.9609626 19.2693548,13.9106952 C19.2483871,10.4278075 18.0322581,7.2368984 15.9774194,4.71336898 Z" id="Path"></path>
                <path d="M11.1967742,22.0860963 C13.8177419,19.7294118 15.6,19.1663102 15.9774194,15.4540107 L15.9774194,9.76042781 L15.9774194,4.7342246 C14.1951613,2.54438503 11.783871,0.896791444 9.03709677,0.020855615 L9.03709677,4.71336898 L9.03709677,7.61229947 C11.05,9.00962567 12.35,11.3037433 12.35,13.9315508 C12.35,16.4342246 11.133871,18.6657754 9.26774194,20.0839572 C9.47741935,20.6679144 9.83387097,21.3770053 9.79193548,21.4812834 C9.77096774,21.5438503 9.43548387,21.4812834 9.03709677,21.3770053 L9.03709677,23.7545455 C9.81290323,23.2331551 10.5258065,22.6909091 11.1967742,22.0860963 Z" id="Path"></path>
                <path d="M12.35,21.1058824 C12.3709677,21.1058824 12.35,21.126738 12.35,21.1058824 C14.3629032,19.4582888 15.6419355,18.6032086 15.9774194,15.4540107 L15.9774194,9.76042781 L15.9774194,4.7342246 C14.1951613,2.54438503 11.783871,0.896791444 9.03709677,0.020855615 L9.03709677,4.71336898 L9.03709677,7.61229947 C11.05,9.00962567 12.35,11.3037433 12.35,13.9315508 C12.35,16.2882353 12.35,20.8139037 12.3290323,21.126738 C12.3080645,21.126738 12.3290323,21.126738 12.35,21.1058824 Z" id="Path" opacity="0.3"></path>
            </g>
            <path d="M29.5225806,0 L29.5225806,19.1037433 L29.5225806,24.7973262 C29.1451613,28.4887701 27.3629032,29.0518717 24.7419355,31.4294118 C24.0709677,32.0342246 23.3580645,32.5973262 22.5822581,33.0770053 L22.5822581,22.9203209 L22.5822581,14.0566845 L22.5822581,4.25454545 C24.4274194,2.25240642 26.8177419,0.771657754 29.5225806,0" id="Path" fill="url(#linearGradient-5)" fill-rule="nonzero"></path>
            <g id="Group" transform="translate(37.322581, 9.593583)">
                <polygon id="Path" fill="#B7B6BE" fill-rule="nonzero" points="2.62096774 17.7064171 0.188709677 17.7064171 0.188709677 4.85935829 2.62096774 4.85935829"></polygon>
                <path d="M16.4596774,17.7064171 L14.0903226,17.7064171 L14.0903226,16.4550802 L14.0483871,16.4550802 C13.1677419,17.4144385 11.8467742,17.9149733 10.1903226,17.9149733 C6.14354839,17.9149733 4.10967742,15.1620321 4.10967742,11.4080214 C4.10967742,7.59144385 6.14354839,4.77593583 10.1903226,4.77593583 C11.783871,4.77593583 13.2096774,5.38074866 14.0483871,6.34010695 L14.0903226,6.34010695 L14.0903226,0.0625668449 L16.4596774,0.0625668449 L16.4596774,17.7064171 Z M10.3580645,6.90320856 C7.59032258,6.90320856 6.47903226,8.82192513 6.47903226,11.3663102 C6.47903226,13.9106952 7.5483871,15.7668449 10.3580645,15.7668449 C13.1677419,15.7668449 14.2370968,13.9106952 14.2370968,11.3663102 C14.2370968,8.80106952 13.1887097,6.90320856 10.3580645,6.90320856 Z" id="Shape" fill="#B7B6BE" fill-rule="nonzero"></path>
                <path d="M30.3612903,12.3673797 L20.0451613,12.3673797 L20.2967742,12.6176471 C20.6532258,14.5989305 21.9532258,15.8085561 24.2596774,15.8085561 C25.6016129,15.8085561 26.7129032,15.328877 27.7403226,14.3695187 L29.3758065,15.9962567 C27.9290323,17.3101604 26.2306452,17.9149733 24.2806452,17.9149733 C19.8774194,17.9149733 17.8435484,15.0994652 17.8435484,11.4497326 C17.8435484,7.59144385 20.1709677,4.77593583 24.1967742,4.77593583 C28.4532258,4.77593583 30.466129,7.6540107 30.466129,11.4497326 C30.4241935,11.7417112 30.4032258,12.0336898 30.3612903,12.3673797 Z M28.1806452,10.3026738 L27.9290323,10.0524064 C27.5516129,8.11283422 26.3354839,6.86149733 24.1548387,6.86149733 C21.8903226,6.86149733 20.7370968,8.17540107 20.3387097,10.0524064 L20.066129,10.3026738 L28.1806452,10.3026738 Z" id="Shape" fill="#B7B6BE" fill-rule="nonzero"></path>
                <path d="M43.5290323,17.7064171 L41.1596774,17.7064171 L41.1596774,10.0106952 C41.1596774,8.17540107 40.6145161,6.88235294 37.8467742,6.88235294 C35.7709677,6.88235294 34.1564516,8.00855615 34.1564516,10.1775401 L34.1564516,17.7064171 L31.7870968,17.7064171 L31.7870968,4.96363636 L34.1564516,4.96363636 L34.1564516,6.34010695 L34.1983871,6.34010695 C35.0790323,5.35989305 36.6096774,4.75508021 38.1193548,4.75508021 C41.4532258,4.75508021 43.5290323,6.50695187 43.5290323,9.65614973 L43.5290323,17.7064171 L43.5290323,17.7064171 Z" id="Path" fill="#B7B6BE" fill-rule="nonzero"></path>
                <path d="M53.5306452,16.3925134 C52.1467742,17.4352941 51.0145161,17.9149733 49.6516129,17.9149733 C47.1983871,17.9149733 45.7725806,16.3508021 45.7725806,13.7647059 L45.7725806,7.25775401 L45.9193548,7.00748663 L44.3048387,7.00748663 L44.3048387,4.96363636 L45.9193548,4.96363636 L45.7725806,4.71336898 L45.7725806,1.27219251 L48.1419355,0.020855615 L48.1419355,4.71336898 L48.016129,4.96363636 L52.0419355,4.96363636 L52.0419355,7.00748663 L48.016129,7.00748663 L48.1419355,7.25775401 L48.1419355,13.7855615 C48.1419355,15.1203209 48.7709677,15.7877005 49.7564516,15.7877005 C50.5532258,15.7877005 51.1193548,15.5374332 51.9580645,14.8074866 L53.5306452,16.3925134 Z" id="Path" fill="#B7B6BE" fill-rule="nonzero"></path>
                <path d="M55.1451613,3.0657754 C54.2435484,3.0657754 53.7193548,2.44010695 53.7193548,1.56417112 C53.7193548,0.688235294 54.2645161,0.0625668449 55.1451613,0.0625668449 C56.0467742,0.0625668449 56.5709677,0.688235294 56.5709677,1.56417112 C56.5709677,2.44010695 56.0258065,3.0657754 55.1451613,3.0657754 Z M56.3403226,17.497861 L53.9709677,17.497861 L53.9709677,4.75508021 L56.3403226,4.75508021 L56.3403226,17.497861 Z" id="Shape" fill="#B7B6BE" fill-rule="nonzero"></path>
                <path d="M66.4258065,16.3925134 C65.0419355,17.4352941 63.9096774,17.9149733 62.5467742,17.9149733 C60.0935484,17.9149733 58.6677419,16.3508021 58.6677419,13.7647059 L58.6677419,7.25775401 L58.8145161,7.00748663 L57.2,7.00748663 L57.2,4.96363636 L58.8145161,4.96363636 L58.6677419,4.71336898 L58.6677419,1.27219251 L61.0370968,0.020855615 L61.0370968,4.71336898 L60.9112903,4.96363636 L64.9370968,4.96363636 L64.9370968,7.00748663 L60.9112903,7.00748663 L61.0370968,7.25775401 L61.0370968,13.7855615 C61.0370968,15.1203209 61.666129,15.7877005 62.6516129,15.7877005 C63.4483871,15.7877005 64.0145161,15.5374332 64.8532258,14.8074866 L66.4258065,16.3925134 Z" id="Path" fill="#B7B6BE" fill-rule="nonzero"></path>
                <g transform="translate(66.048387, 2.711230)" id="Path">
                    <polygon points="6.43709677 8.17540107 7.00322581 9.90641711 7.04516129 9.90641711 7.59032258 8.17540107 10.5048387 0.959358289 3.18709677 0.959358289"></polygon>
                    <path d="M11.3225806,0.12513369 L11.3225806,0.959358289 L10.483871,0.959358289 L7.56935484,8.17540107 L7.02419355,9.8855615 L6.98225806,9.8855615 L6.41612903,8.17540107 L3.18709677,0.959358289 L2.66290323,0.959358289 L2.66290323,0.145989305 L0.188709677,0.145989305 L5.85,12.3673797 C5.2,13.9524064 4.44516129,14.6614973 3.52258065,14.6614973 C2.80967742,14.6614973 2.03387097,14.4737968 1.13225806,13.9941176 L1.13225806,16.2673797 C1.97096774,16.684492 2.80967742,16.8513369 3.77419355,16.8513369 C5.51451613,16.8513369 6.94032258,15.6625668 7.71612903,13.8064171 L13.5032258,0.12513369 L11.3225806,0.12513369 Z" fill="#B7B6BE" fill-rule="nonzero"></path>
                    <polygon fill="#B7B6BE" fill-rule="nonzero" points="3.18709677 0.959358289 2.83064516 0.145989305 2.66290323 0.145989305 2.66290323 0.959358289"></polygon>
                    <polyline fill="#B7B6BE" fill-rule="nonzero" points="10.8193548 0.145989305 10.5048387 0.959358289 11.3225806 0.959358289 11.3225806 0.12513369"></polyline>
                </g>
            </g>
            <path d="M38.9790323,12.5550802 C38.0774194,12.5550802 37.5532258,11.9294118 37.5532258,11.0534759 C37.5532258,10.1775401 38.0983871,9.55187166 38.9790323,9.55187166 C39.8806452,9.55187166 40.4048387,10.1775401 40.4048387,11.0534759 C40.4048387,11.9294118 39.8596774,12.5550802 38.9790323,12.5550802 Z" id="Path" fill="#B7B6BE" fill-rule="nonzero"></path>
        </g>
        <path d="M170,816 L354,816 L354,827 L170,827 L170,816 Z" id="Rectangle" fill="#3172F4" transform="translate(262.000000, 821.500000) scale(1, -1) translate(-262.000000, -821.500000) "></path>
        <path d="M434,816 L618,816 L618,827 L434,827 L434,816 Z" id="Rectangle-Copy-3" fill="#E1E1E1" transform="translate(526.000000, 821.500000) scale(1, -1) translate(-526.000000, -821.500000) "></path>
        <path d="M698,816 L882,816 L882,827 L698,827 L698,816 Z" id="Rectangle-Copy-4" fill="#0F0F0F" transform="translate(790.000000, 821.500000) scale(1, -1) translate(-790.000000, -821.500000) "></path>
        <text id="3172f4" font-family="ProductSans-Light, Product Sans Light" font-size="17" font-weight="normal" line-spacing="23" letter-spacing="1.89999998" fill="#2D1F1F">
            <tspan x="175" y="800">3172f</tspan>
            <tspan x="222.512" y="800">4</tspan>
        </text>
        <text id="e1e1e1" font-family="ProductSans-Light, Product Sans Light" font-size="17" font-weight="normal" line-spacing="23" letter-spacing="1.89999998" fill="#2D1F1F">
            <tspan x="434" y="800">e1e1e1</tspan>
        </text>
        <text id="0f0f0f" font-family="ProductSans-Light, Product Sans Light" font-size="17" font-weight="normal" line-spacing="23" letter-spacing="1.89999998" fill="#2D1F1F">
            <tspan x="696" y="800">0f0f0f</tspan>
        </text>
        <g id="identitylogo-copy-6" transform="translate(330.000000, 615.000000)">
            <path d="M0.77078853,70.4737968 L0.77078853,70.5438503" id="Path" stroke="#A8AFBA" stroke-width="0.5"></path>
            <path d="M25.1557348,71.3144385 L25.1557348,71.384492" id="Path" stroke="#A8AFBA" stroke-width="0.5"></path>
            <path d="M98.5908602,81.7524064 C98.5908602,108.722995 76.7284946,130.649733 49.7508961,130.649733 C22.7732975,130.649733 0.9109319,108.722995 0.9109319,81.7524064 C0.9109319,54.7818182 22.7732975,32.8550802 49.7508961,32.8550802 C76.7284946,32.8550802 98.5908602,54.7117647 98.5908602,81.7524064 Z" id="Path" stroke="#A8AFBA" stroke-width="0.5" stroke-linecap="round" stroke-linejoin="round" stroke-dasharray="0.7,0.7,0.7,0.7,0.7,0.7"></path>
            <path d="M25.0155914,12.1192513 C25.0155914,18.7743316 19.6200717,24.1684492 12.9632616,24.1684492 C6.30645161,24.1684492 0.9109319,18.7743316 0.9109319,12.1192513 C0.9109319,5.46417112 6.30645161,0.0700534759 12.9632616,0.0700534759 C19.6200717,0.0700534759 25.0155914,5.46417112 25.0155914,12.1192513" id="Path" fill="#3172F4" fill-rule="nonzero"></path>
            <g id="Group" transform="translate(0.700717, 32.224599)">
                <path d="M33.8446237,70.4037433 C38.1189964,73.4860963 43.3743728,75.3074866 49.0501792,75.3074866 C52.7639785,75.3074866 56.3376344,74.4668449 59.5609319,73.0657754 C61.102509,73.5561497 66.2177419,75.3074866 66.3578853,74.8171123 C66.4980287,74.4668449 65.30681,72.0850267 64.6060932,70.1235294 C70.8424731,65.4299465 74.9066308,57.9342246 74.9066308,49.457754 C74.9066308,35.1668449 63.3448029,23.6080214 49.0501792,23.6080214 C42.3933692,23.6080214 36.3672043,26.1299465 31.7424731,30.1930481 L31.8826165,48.9673797 L33.8446237,70.4037433 Z" id="Path"></path>
                <path d="M49.0501792,0.560427807 C42.883871,0.560427807 36.9978495,1.68128342 31.5322581,3.7828877 C14.3646953,10.3679144 1.8218638,26.2700535 0.280286738,45.3245989 L0.280286738,48.3368984 L0.280286738,53.5909091 C0.280286738,53.9411765 0.350358423,54.3614973 0.350358423,54.7117647 C2.10215054,66.4807487 8.96917563,76.8486631 19.7602151,84.5545455 C19.9003584,84.7647059 20.1105735,84.9748663 20.3207885,85.0449198 L24.0345878,91.4898396 C27.8184588,93.7315508 31.8826165,95.4828877 36.2270609,96.6737968 C40.2912186,97.7946524 44.5655914,98.3550802 49.0501792,98.3550802 C76.0978495,98.3550802 98.0302867,76.4283422 98.0302867,49.3877005 C97.9602151,22.4871658 76.0277778,0.560427807 49.0501792,0.560427807 Z M64.5360215,70.1935829 C65.2367384,72.1550802 66.427957,74.5368984 66.2878136,74.8871658 C66.1476703,75.3775401 60.9623656,73.6962567 59.4908602,73.1358289 C56.2675627,74.5368984 52.7639785,75.3775401 48.9801075,75.3775401 C43.3043011,75.3775401 38.0489247,73.5561497 33.774552,70.4737968 C27.327957,65.7101604 23.1236559,58.144385 23.1236559,49.5278075 C23.1236559,41.8919786 26.4170251,35.026738 31.6724014,30.2631016 C36.2270609,26.1299465 42.3232975,23.6780749 48.9801075,23.6780749 C63.2747312,23.6780749 74.8365591,35.2368984 74.8365591,49.5278075 C74.9066308,57.9342246 70.8424731,65.4299465 64.5360215,70.1935829 Z" id="Shape" fill="#3172F4" fill-rule="nonzero"></path>
                <path d="M23.1236559,49.5278075 C23.1236559,41.8919786 26.4170251,35.026738 31.6724014,30.2631016 L31.4621864,3.7828877 C14.2946237,10.3679144 1.75179211,26.2700535 0.210215054,45.3245989 L0.210215054,48.3368984 L0.210215054,53.5909091 C0.210215054,53.9411765 0.280286738,54.3614973 0.280286738,54.7117647 C2.03207885,66.4807487 8.89910394,76.8486631 19.6901434,84.5545455 C19.8302867,84.7647059 20.0405018,84.9748663 20.2507168,85.0449198 L23.9645161,91.4898396 C27.7483871,93.7315508 31.8125448,95.4828877 36.1569892,96.6737968 L33.774552,70.3336898 C27.327957,65.7101604 23.1236559,58.144385 23.1236559,49.5278075 Z" id="Path" fill="url(#linearGradient-6)" fill-rule="nonzero" opacity="0.3"></path>
            </g>
            <path d="M0.981003584,32.6449198 L0.981003584,39.7903743 L0.981003584,76.1481283 L0.981003584,76.3582888 L0.981003584,80.6315508 L0.981003584,86.3759358 C2.17222222,98.4251337 7.42759857,108.933155 15.766129,116.779144 C15.8362007,116.989305 15.9763441,117.199465 16.1865591,117.269519 L16.8172043,117.759893 C18.6390681,119.371123 20.5310036,120.842246 22.5630824,122.243316 L24.9455197,124.064706 L24.9455197,81.2620321 L24.9455197,47.3561497 C18.4989247,40.4909091 10.3005376,35.3069519 0.981003584,32.6449198" id="Path" fill="#3172F4" fill-rule="nonzero"></path>
            <g id="Group" transform="translate(34.335125, 35.026738)" fill-rule="nonzero">
                <path d="M53.3946237,15.8320856 L53.3946237,32.7149733 L53.3946237,51.8395722 C52.1333333,64.2390374 46.1772401,66.1304813 37.4182796,74.1165775 C35.1759857,76.1481283 32.7935484,78.0395722 30.2008961,79.6508021 L30.2008961,71.6647059 C28.5892473,71.244385 26.6973118,70.6139037 25.9265233,70.3336898 C22.7032258,71.7347594 19.1996416,72.5754011 15.4157706,72.5754011 C9.73996416,72.5754011 4.48458781,70.7540107 0.210215054,67.6716578 L2.59265233,94.0117647 C6.65681004,95.1326203 10.9311828,95.6930481 15.4157706,95.6930481 C42.4634409,95.6930481 64.3958781,73.7663102 64.3958781,46.7256684 C64.3258065,35.026738 60.2616487,24.3085561 53.3946237,15.8320856 Z" id="Path" fill="#3172F4"></path>
                <path d="M37.4182796,74.186631 C46.1772401,66.2705882 52.1333333,64.3791444 53.3946237,51.9096257 L53.3946237,32.7850267 L53.3946237,15.902139 C47.4385305,8.54652406 39.3802867,3.01229947 30.2008961,0.0700534759 L30.2008961,15.8320856 L30.2008961,25.5695187 C36.9277778,30.2631016 41.2722222,37.968984 41.2722222,46.7957219 C41.2722222,55.202139 37.2080645,62.697861 30.9716846,67.4614973 C31.6724014,69.4229947 32.8636201,71.8048128 32.7234767,72.1550802 C32.653405,72.3652406 31.5322581,72.1550802 30.2008961,71.8048128 L30.2008961,79.7909091 C32.7935484,78.0395722 35.1759857,76.2181818 37.4182796,74.186631 Z" id="Path" fill="#3172F4"></path>
                <path d="M41.2722222,70.8941176 C41.3422939,70.8941176 41.2722222,70.9641711 41.2722222,70.8941176 C47.9991039,65.359893 52.2734767,62.4877005 53.3946237,51.9096257 L53.3946237,32.7850267 L53.3946237,15.902139 C47.4385305,8.54652406 39.3802867,3.01229947 30.2008961,0.0700534759 L30.2008961,15.8320856 L30.2008961,25.5695187 C36.9277778,30.2631016 41.2722222,37.968984 41.2722222,46.7957219 C41.2722222,54.7117647 41.2722222,69.913369 41.2021505,70.9641711 C41.1320789,70.9641711 41.2021505,70.9641711 41.2722222,70.8941176 Z" id="Path" fill="url(#linearGradient-7)" opacity="0.3"></path>
            </g>
            <path d="M98.6609319,0 L98.6609319,64.168984 L98.6609319,83.2935829 C97.3996416,95.6930481 91.4435484,97.584492 82.6845878,105.570588 C80.4422939,107.602139 78.0598566,109.493583 75.4672043,111.104813 L75.4672043,76.9887701 L75.4672043,47.2160428 L75.4672043,14.2909091 C81.6335125,7.5657754 89.6216846,2.59197861 98.6609319,0" id="Path" fill="#3172F4" fill-rule="nonzero"></path>
            <g id="Group" transform="translate(124.727599, 32.224599)">
                <polygon id="Path" fill="#000000" fill-rule="nonzero" points="8.75896057 59.4754011 0.630645161 59.4754011 0.630645161 16.3224599 8.75896057 16.3224599"></polygon>
                <path d="M55.0062724,59.4754011 L47.088172,59.4754011 L47.088172,55.2721925 L46.9480287,55.2721925 C44.0050179,58.4946524 39.5905018,60.1759358 34.0548387,60.1759358 C20.5310036,60.1759358 13.7340502,50.928877 13.7340502,38.3192513 C13.7340502,25.4994652 20.5310036,16.042246 34.0548387,16.042246 C39.3802867,16.042246 44.1451613,18.0737968 46.9480287,21.2962567 L47.088172,21.2962567 L47.088172,0.210160428 L55.0062724,0.210160428 L55.0062724,59.4754011 Z M34.6154122,23.1877005 C25.3659498,23.1877005 21.6521505,29.6326203 21.6521505,38.1791444 C21.6521505,46.7256684 25.2258065,52.9604278 34.6154122,52.9604278 C44.0050179,52.9604278 47.5786738,46.7256684 47.5786738,38.1791444 C47.5786738,29.5625668 44.0750896,23.1877005 34.6154122,23.1877005 Z" id="Shape" fill="#000000" fill-rule="nonzero"></path>
                <path d="M101.463799,41.5417112 L66.9885305,41.5417112 L67.8293907,42.3823529 C69.0206093,49.0374332 73.3650538,53.1005348 81.0729391,53.1005348 C85.5575269,53.1005348 89.2713262,51.4893048 92.7048387,48.2668449 L98.1704301,53.731016 C93.3354839,58.144385 87.6596774,60.1759358 81.1430108,60.1759358 C66.427957,60.1759358 59.6310036,50.7187166 59.6310036,38.4593583 C59.6310036,25.4994652 67.4089606,16.042246 80.862724,16.042246 C95.087276,16.042246 101.814158,25.7096257 101.814158,38.4593583 C101.674014,39.440107 101.603943,40.4208556 101.463799,41.5417112 Z M94.1763441,34.6064171 L93.3354839,33.7657754 C92.0741935,27.2508021 88.0100358,23.0475936 80.7225806,23.0475936 C73.1548387,23.0475936 69.3008961,27.4609626 67.9695341,33.7657754 L67.0586022,34.6064171 L94.1763441,34.6064171 Z" id="Shape" fill="#000000" fill-rule="nonzero"></path>
                <path d="M145.468817,59.4754011 L137.550717,59.4754011 L137.550717,33.6256684 C137.550717,27.4609626 135.728853,23.1176471 126.479391,23.1176471 C119.542294,23.1176471 114.146774,26.9005348 114.146774,34.1860963 L114.146774,59.4754011 L106.228674,59.4754011 L106.228674,16.6727273 L114.146774,16.6727273 L114.146774,21.2962567 L114.286918,21.2962567 C117.229928,18.0037433 122.345161,15.9721925 127.390323,15.9721925 C138.53172,15.9721925 145.468817,21.8566845 145.468817,32.4347594 L145.468817,59.4754011 L145.468817,59.4754011 Z" id="Path" fill="#000000" fill-rule="nonzero"></path>
                <path d="M178.893011,55.0620321 C174.26828,58.5647059 170.484409,60.1759358 165.929749,60.1759358 C157.731362,60.1759358 152.966487,54.9219251 152.966487,46.2352941 L152.966487,24.3786096 L153.456989,23.5379679 L148.06147,23.5379679 L148.06147,16.6727273 L153.456989,16.6727273 L152.966487,15.8320856 L152.966487,4.27326203 L160.884588,0.0700534759 L160.884588,15.8320856 L160.464158,16.6727273 L173.917921,16.6727273 L173.917921,23.5379679 L160.464158,23.5379679 L160.884588,24.3786096 L160.884588,46.3053476 C160.884588,50.7887701 162.986738,53.0304813 166.280108,53.0304813 C168.942832,53.0304813 170.834767,52.1898396 173.637634,49.7379679 L178.893011,55.0620321 Z" id="Path" fill="#000000" fill-rule="nonzero"></path>
                <path d="M184.28853,10.297861 C181.275448,10.297861 179.523656,8.19625668 179.523656,5.2540107 C179.523656,2.31176471 181.34552,0.210160428 184.28853,0.210160428 C187.301613,0.210160428 189.053405,2.31176471 189.053405,5.2540107 C189.053405,8.19625668 187.231541,10.297861 184.28853,10.297861 Z M188.282616,58.7748663 L180.364516,58.7748663 L180.364516,15.9721925 L188.282616,15.9721925 L188.282616,58.7748663 Z" id="Shape" fill="#000000" fill-rule="nonzero"></path>
                <path d="M221.987097,55.0620321 C217.362366,58.5647059 213.578495,60.1759358 209.023835,60.1759358 C200.825448,60.1759358 196.060573,54.9219251 196.060573,46.2352941 L196.060573,24.3786096 L196.551075,23.5379679 L191.155556,23.5379679 L191.155556,16.6727273 L196.551075,16.6727273 L196.060573,15.8320856 L196.060573,4.27326203 L203.978674,0.0700534759 L203.978674,15.8320856 L203.558244,16.6727273 L217.012007,16.6727273 L217.012007,23.5379679 L203.558244,23.5379679 L203.978674,24.3786096 L203.978674,46.3053476 C203.978674,50.7887701 206.080824,53.0304813 209.374194,53.0304813 C212.036918,53.0304813 213.928853,52.1898396 216.73172,49.7379679 L221.987097,55.0620321 Z" id="Path" fill="#000000" fill-rule="nonzero"></path>
                <g transform="translate(220.725806, 9.106952)" id="Path">
                    <polygon points="21.5120072 27.4609626 23.4039427 33.2754011 23.544086 33.2754011 25.3659498 27.4609626 35.105914 3.22245989 10.6508961 3.22245989"></polygon>
                    <path d="M37.8387097,0.420320856 L37.8387097,3.22245989 L35.0358423,3.22245989 L25.2958781,27.4609626 L23.4740143,33.2053476 L23.333871,33.2053476 L21.4419355,27.4609626 L10.6508961,3.22245989 L8.89910394,3.22245989 L8.89910394,0.490374332 L0.630645161,0.490374332 L19.55,41.5417112 C17.3777778,46.8657754 14.8551971,49.2475936 11.772043,49.2475936 C9.38960573,49.2475936 6.79695341,48.6171123 3.78387097,47.0058824 L3.78387097,54.6417112 C6.58673835,56.0427807 9.38960573,56.6032086 12.6129032,56.6032086 C18.428853,56.6032086 23.1937276,52.6101604 25.7863799,46.3754011 L45.1261649,0.420320856 L37.8387097,0.420320856 Z" fill="#000000" fill-rule="nonzero"></path>
                    <polygon fill="#000000" fill-rule="nonzero" points="10.6508961 3.22245989 9.45967742 0.490374332 8.89910394 0.490374332 8.89910394 3.22245989"></polygon>
                    <polyline fill="#000000" fill-rule="nonzero" points="36.1569892 0.490374332 35.105914 3.22245989 37.8387097 3.22245989 37.8387097 0.420320856"></polyline>
                </g>
            </g>
            <path d="M130.263262,42.1721925 C127.250179,42.1721925 125.498387,40.0705882 125.498387,37.1283422 C125.498387,34.1860963 127.320251,32.084492 130.263262,32.084492 C133.276344,32.084492 135.028136,34.1860963 135.028136,37.1283422 C135.028136,40.0705882 133.206272,42.1721925 130.263262,42.1721925 Z" id="Path" fill="#000000" fill-rule="nonzero"></path>
        </g>
        <g id="Group-2" transform="translate(0.000000, 0.000000)">
            <rect id="Rectangle" fill="#033BC5" x="0" y="0" width="1050" height="529"></rect>
            <use id="Rectangle" stroke="url(#linearGradient-8)" mask="url(#mask-10)" stroke-width="3" opacity="0.216192336" stroke-dasharray="13" xlink:href="#path-9"></use>
            <use id="Rectangle-Copy" stroke="url(#linearGradient-8)" mask="url(#mask-12)" stroke-width="3" opacity="0.216192336" stroke-dasharray="13" xlink:href="#path-11"></use>
            <use id="Rectangle" stroke="url(#linearGradient-13)" mask="url(#mask-15)" stroke-width="3" opacity="0.216192336" stroke-dasharray="13" xlink:href="#path-14"></use>
            <use id="Rectangle-Copy-2" stroke="url(#linearGradient-13)" mask="url(#mask-17)" stroke-width="3" opacity="0.216192336" stroke-dasharray="13" xlink:href="#path-16"></use>
            <g id="identitylogo-copy-5" transform="translate(219.000000, 186.000000)">
                <path d="M87.5,101.45 L87.5,101.55" id="Path" stroke="#A8AFBA" stroke-width="0.5"></path>
                <path d="M121.5,102.45 L121.5,102.55" id="Path" stroke="#A8AFBA" stroke-width="0.5"></path>
                <path d="M34,17 C34,26.3895349 26.3895349,34 17,34 C7.61046512,34 0,26.3895349 0,17 C0,7.61046512 7.61046512,0 17,0 C26.3895349,0 34,7.61046512 34,17" id="Path" fill="#FFFFFF" fill-rule="nonzero" opacity="0.38546317"></path>
                <g id="Group" transform="translate(0.000000, 2.000000)">
                    <path d="M143.3,150.5 C149.4,154.9 156.9,157.5 165,157.5 C170.3,157.5 175.4,156.3 180,154.3 C182.2,155 189.5,157.5 189.7,156.8 C189.9,156.3 188.2,152.9 187.2,150.1 C196.1,143.4 201.9,132.7 201.9,120.6 C201.9,100.2 185.4,83.7 165,83.7 C155.5,83.7 146.9,87.3 140.3,93.1 L140.5,119.9 L143.3,150.5 Z" id="Path"></path>
                    <path d="M34,172.427014 L34,173 L30.619883,170.449808 C27.7368421,168.488123 25.0526316,166.428352 22.4678363,164.172414 L21.5730994,163.485824 C21.2748538,163.387739 21.0760234,163.093487 20.9766082,162.799234 C9.14619883,151.813793 1.69005848,137.101149 -2.84217094e-14,120.230651 L-2.84217094e-14,112.187739 L-2.84217094e-14,106.204598 L-2.84217094e-14,105.910345 L-2.84217094e-14,55.0045977 L-2.84217094e-14,45 C9.80436613,47.763746 18.7341454,52.4689683 26.4245499,58.6357943 C31.7466135,54.5166267 37.6900064,51.1527676 44.0888252,48.7042254 C51.7994269,45.7464789 60.1031519,44.1690141 68.8022923,44.1690141 C82.2269141,44.1690141 94.7659689,48.0085555 105.378223,54.6405145 L105.378223,20.1634016 C114.051083,10.674742 125.286377,3.65708754 138,0 L138,90.5376268 L138,117.521002 C137.827946,119.217757 137.59378,120.775051 137.299929,122.214257 C132.820547,155.95624 103.856552,182 68.8022923,182 C62.4756447,182 56.4455587,181.211268 50.7120344,179.633803 L50.6937018,179.431604 C44.758188,177.806711 39.1936207,175.441985 34,172.427011 Z M33.9999992,124.321747 C36.4017026,131.69688 41.1041182,138.031242 47.252149,142.56338 C47.2873432,142.588699 47.3225846,142.613957 47.357873,142.639155 L47.3510029,142.56338 C53.3685622,146.892397 60.7643317,149.454131 68.7523987,149.464756 C74.0717729,149.457546 78.9981462,148.27566 83.5315186,146.309859 C83.5487446,146.316404 83.5663313,146.323057 83.5842717,146.329817 C83.5996431,146.323173 83.6150101,146.316521 83.6303725,146.309859 C84.717765,146.704225 87.3868195,147.591549 89.6604585,148.183099 L89.6604585,148.273203 C91.5038148,148.777409 93.0314538,149.084937 93.1203438,148.774648 C93.3180516,148.28169 91.6375358,144.929577 90.6489971,142.169014 C99.5458453,135.464789 105.27937,124.915493 105.180516,113.084507 C105.180516,102.078431 100.296209,92.2237635 92.5686387,85.5561323 C91.6394134,84.7616311 90.6689128,84.0118086 89.6604585,83.3098592 L89.6604585,83.2921109 C83.7332187,79.1401211 76.5069731,76.7042254 68.7034384,76.7042254 C59.3123209,76.7042254 50.7120344,80.1549296 44.286533,85.971831 C39.5849269,90.2233087 35.9964212,95.6642292 34,101.816879 L34,113.070498 L34,124.321749 Z" id="Combined-Shape" fill="url(#linearGradient-18)" fill-rule="nonzero" opacity="0.518554688"></path>
                </g>
                <g id="Group" transform="translate(135.000000, 73.000000)"></g>
                <g id="Group" transform="translate(179.000000, 51.000000)" fill-rule="nonzero" opacity="0.333054315">
                    <polygon id="Path" fill="url(#linearGradient-19)" points="12.4671053 84.9 0.897631579 84.9 0.897631579 23.3 12.4671053 23.3"></polygon>
                    <path d="M78.2934211,84.9 L67.0231579,84.9 L67.0231579,78.9 L66.8236842,78.9 C62.6347368,83.5 56.3513158,85.9 48.4721053,85.9 C29.2228947,85.9 19.5484211,72.7 19.5484211,54.7 C19.5484211,36.4 29.2228947,22.9 48.4721053,22.9 C56.0521053,22.9 62.8342105,25.8 66.8236842,30.4 L67.0231579,30.4 L67.0231579,0.3 L78.2934211,0.3 L78.2934211,84.9 Z M49.27,33.1 C36.1047368,33.1 30.8186842,42.3 30.8186842,54.5 C30.8186842,66.7 35.9052632,75.6 49.27,75.6 C62.6347368,75.6 67.7213158,66.7 67.7213158,54.5 C67.7213158,42.2 62.7344737,33.1 49.27,33.1 Z" id="Shape" fill="url(#linearGradient-20)"></path>
                    <path d="M144.418947,59.3 L95.3484211,59.3 L96.5452632,60.5 C98.2407895,70 104.424474,75.8 115.395526,75.8 C121.778684,75.8 127.064737,73.5 131.951842,68.9 L139.731316,76.7 C132.849474,83 124.770789,85.9 115.495263,85.9 C94.5505263,85.9 84.8760526,72.4 84.8760526,54.9 C84.8760526,36.4 95.9468421,22.9 115.096316,22.9 C135.342895,22.9 144.917632,36.7 144.917632,54.9 C144.718158,56.3 144.618421,57.7 144.418947,59.3 Z M134.046316,49.4 L132.849474,48.2 C131.054211,38.9 125.269474,32.9 114.896842,32.9 C104.125263,32.9 98.6397368,39.2 96.7447368,48.2 L95.4481579,49.4 L134.046316,49.4 Z" id="Shape" fill="url(#linearGradient-21)"></path>
                    <path d="M207.053684,84.9 L195.783421,84.9 L195.783421,48 C195.783421,39.2 193.190263,33 180.025,33 C170.151053,33 162.471316,38.4 162.471316,48.8 L162.471316,84.9 L151.201053,84.9 L151.201053,23.8 L162.471316,23.8 L162.471316,30.4 L162.670789,30.4 C166.859737,25.7 174.140526,22.8 181.321579,22.8 C197.179737,22.8 207.053684,31.2 207.053684,46.3 L207.053684,84.9 L207.053684,84.9 Z" id="Path" fill="url(#linearGradient-22)"></path>
                    <path d="M254.628158,78.6 C248.045526,83.6 242.659737,85.9 236.176842,85.9 C224.507632,85.9 217.725526,78.4 217.725526,66 L217.725526,34.8 L218.423684,33.6 L210.743947,33.6 L210.743947,23.8 L218.423684,23.8 L217.725526,22.6 L217.725526,6.1 L228.995789,0.1 L228.995789,22.6 L228.397368,23.8 L247.546842,23.8 L247.546842,33.6 L228.397368,33.6 L228.995789,34.8 L228.995789,66.1 C228.995789,72.5 231.987895,75.7 236.675526,75.7 C240.465526,75.7 243.158421,74.5 247.147895,71 L254.628158,78.6 Z" id="Path" fill="url(#linearGradient-23)"></path>
                    <path d="M262.307895,14.7 C258.019211,14.7 255.525789,11.7 255.525789,7.5 C255.525789,3.3 258.118947,0.3 262.307895,0.3 C266.596579,0.3 269.09,3.3 269.09,7.5 C269.09,11.7 266.496842,14.7 262.307895,14.7 Z M267.992895,83.9 L256.722632,83.9 L256.722632,22.8 L267.992895,22.8 L267.992895,83.9 Z" id="Shape" fill="url(#linearGradient-24)"></path>
                    <path d="M315.966316,78.6 C309.383684,83.6 303.997895,85.9 297.515,85.9 C285.845789,85.9 279.063684,78.4 279.063684,66 L279.063684,34.8 L279.761842,33.6 L272.082105,33.6 L272.082105,23.8 L279.761842,23.8 L279.063684,22.6 L279.063684,6.1 L290.333947,0.1 L290.333947,22.6 L289.735526,23.8 L308.885,23.8 L308.885,33.6 L289.735526,33.6 L290.333947,34.8 L290.333947,66.1 C290.333947,72.5 293.326053,75.7 298.013684,75.7 C301.803684,75.7 304.496579,74.5 308.486053,71 L315.966316,78.6 Z" id="Path" fill="url(#linearGradient-23)"></path>
                    <g transform="translate(0.171053, -0.000000)" id="Path">
                        <path d="M7.82894737,14 C3.40247678,14 0.828947368,11.0833333 0.828947368,7 C0.828947368,2.91666667 3.50541796,1.13686838e-13 7.82894737,1.13686838e-13 C12.255418,1.13686838e-13 14.8289474,2.91666667 14.8289474,7 C14.8289474,11.0833333 12.1524768,14 7.82894737,14 Z" fill="url(#linearGradient-25)"></path>
                        <path d="M367.857895,13.6 L367.857895,17.6 L363.868421,17.6 L350.005,52.2 L347.411842,60.4 L347.212368,60.4 L344.519474,52.2 L329.16,17.6 L326.666579,17.6 L326.666579,13.7 L314.897632,13.7 L341.826579,72.3 C338.734737,79.9 335.144211,83.3 330.755789,83.3 C327.364737,83.3 323.674474,82.4 319.385789,80.1 L319.385789,91 C323.375263,93 327.364737,93.8 331.952632,93.8 C340.230789,93.8 347.012895,88.1 350.703158,79.2 L378.230526,13.6 L367.857895,13.6 Z" fill="url(#linearGradient-26)"></path>
                        <polygon fill="url(#linearGradient-27)" points="329.16 17.6 327.464474 13.7 326.666579 13.7 326.666579 17.6"></polygon>
                        <polyline fill="url(#linearGradient-28)" points="365.464211 13.7 363.968158 17.6 367.857895 17.6 367.857895 13.6"></polyline>
                    </g>
                </g>
            </g>
            <use id="Rectangle" stroke="url(#linearGradient-29)" mask="url(#mask-31)" stroke-width="3" opacity="0.216192336" stroke-dasharray="13" xlink:href="#path-30"></use>
            <use id="Rectangle" stroke="url(#linearGradient-32)" mask="url(#mask-34)" stroke-width="3" opacity="0.216192336" stroke-dasharray="13" xlink:href="#path-33"></use>
            <use id="Rectangle-Copy-5" stroke="url(#linearGradient-35)" mask="url(#mask-37)" stroke-width="3" opacity="0.216192336" stroke-dasharray="13" xlink:href="#path-36"></use>
            <use id="Rectangle" stroke="url(#linearGradient-38)" mask="url(#mask-40)" stroke-width="3" opacity="0.216192336" stroke-dasharray="13" xlink:href="#path-39"></use>
            <text id="x" opacity="0.346888951" font-family="ProductSans-Light, Product Sans Light" font-size="33" font-weight="normal" letter-spacing="3.688235" fill="#FFFFFF">
                <tspan x="184" y="164">x</tspan>
            </text>
            <text id="3/4" opacity="0.557803199" font-family="ProductSans-Light, Product Sans Light" font-size="15" font-weight="normal" fill="#FFFFFF">
                <tspan x="365" y="217">3/</tspan>
                <tspan x="379.025" y="217" letter-spacing="3.688235">4</tspan>
            </text>
            <text id="3/4-copy" opacity="0.557803199" font-family="ProductSans-Light, Product Sans Light" font-size="15" font-weight="normal" fill="#FFFFFF">
                <tspan x="365" y="356">3/</tspan>
                <tspan x="379.025" y="356" letter-spacing="3.688235">4</tspan>
            </text>
            <text id="x-copy-2" opacity="0.346888951" font-family="ProductSans-Light, Product Sans Light" font-size="33" font-weight="normal" letter-spacing="3.688235" fill="#FFFFFF">
                <tspan x="799" y="164">x</tspan>
            </text>
            <text id="8-X" opacity="0.346888951" font-family="ProductSans-Light, Product Sans Light" font-size="28" font-weight="normal" letter-spacing="3.129412" fill="#FFFFFF">
                <tspan x="480" y="164">8 X</tspan>
            </text>
            <text id="8-X-Copy" opacity="0.346888951" font-family="ProductSans-Light, Product Sans Light" font-size="28" font-weight="normal" letter-spacing="3.129412" fill="#FFFFFF">
                <tspan x="480" y="411">8 X</tspan>
            </text>
            <text id="3-x" opacity="0.346888951" font-family="ProductSans-Light, Product Sans Light" font-size="33" font-weight="normal" line-spacing="20" letter-spacing="3.688235" fill="#FFFFFF">
                <tspan x="182" y="288">3</tspan>
                <tspan x="182" y="308">x</tspan>
            </text>
            <text id="3-x-copy" opacity="0.346888951" font-family="ProductSans-Light, Product Sans Light" font-size="33" font-weight="normal" line-spacing="20" letter-spacing="3.688235" fill="#FFFFFF">
                <tspan x="797" y="288">3</tspan>
                <tspan x="797" y="308">x</tspan>
            </text>
            <text id="x-copy" opacity="0.346888951" font-family="ProductSans-Light, Product Sans Light" font-size="33" font-weight="normal" letter-spacing="3.688235" fill="#FFFFFF">
                <tspan x="182" y="407">x</tspan>
            </text>
            <text id="x-copy-3" opacity="0.346888951" font-family="ProductSans-Light, Product Sans Light" font-size="33" font-weight="normal" letter-spacing="3.688235" fill="#FFFFFF">
                <tspan x="797" y="407">x</tspan>
            </text>
        </g>
    </g>
</svg>