<?xml version="1.0" encoding="UTF-8"?>
<svg width="1050px" height="1050px" viewBox="0 0 1050 1050" version="1.1" xmlns="http://www.w3.org/2000/svg" xmlns:xlink="http://www.w3.org/1999/xlink">
    <!-- Generator: Sketch 53.2 (72643) - https://sketchapp.com -->
    <title>Artboard Copy</title>
    <desc>Created with Sketch.</desc>
    <defs>
        <linearGradient x1="0.104288499%" y1="50.0524887%" x2="100.651267%" y2="50.0524887%" id="linearGradient-1">
            <stop stop-color="#FFFFFF" offset="0%"></stop>
            <stop stop-color="#0D006A" offset="41.79%"></stop>
            <stop stop-color="#3172F4" stop-opacity="0.8" offset="100%"></stop>
        </linearGradient>
        <linearGradient x1="-0.122054381%" y1="49.9786561%" x2="99.9827795%" y2="49.9786561%" id="linearGradient-2">
            <stop stop-color="#3172F4" stop-opacity="0.8" offset="0%"></stop>
            <stop stop-color="#0D006A" offset="55.23%"></stop>
            <stop stop-color="#FFFFFF" offset="100%"></stop>
        </linearGradient>
        <linearGradient x1="0.104288499%" y1="50.0524887%" x2="100.651267%" y2="50.0524887%" id="linearGradient-3">
            <stop stop-color="#FFFFFF" offset="0%"></stop>
            <stop stop-color="#161617" offset="41.79%"></stop>
            <stop stop-color="#2F3238" stop-opacity="0.8" offset="100%"></stop>
        </linearGradient>
        <linearGradient x1="50%" y1="0%" x2="51.5127579%" y2="67.1072595%" id="linearGradient-4">
            <stop stop-color="#E3E3E7" offset="0%"></stop>
            <stop stop-color="#B7B6BE" offset="100%"></stop>
        </linearGradient>
        <linearGradient x1="50%" y1="0%" x2="50.9593738%" y2="67.1072595%" id="linearGradient-5">
            <stop stop-color="#E3E3E7" offset="0%"></stop>
            <stop stop-color="#B7B6BE" offset="100%"></stop>
        </linearGradient>
        <linearGradient x1="0.104288499%" y1="50.0524887%" x2="100.651267%" y2="50.0524887%" id="linearGradient-6">
            <stop stop-color="#FFFFFF" offset="0%"></stop>
            <stop stop-color="#0D006A" offset="41.79%"></stop>
            <stop stop-color="#3172F4" stop-opacity="0.8" offset="100%"></stop>
        </linearGradient>
        <linearGradient x1="-0.122054381%" y1="49.9786561%" x2="99.9827795%" y2="49.9786561%" id="linearGradient-7">
            <stop stop-color="#3172F4" stop-opacity="0.8" offset="0%"></stop>
            <stop stop-color="#0D006A" offset="55.23%"></stop>
            <stop stop-color="#FFFFFF" offset="100%"></stop>
        </linearGradient>
        <linearGradient x1="43.0479286%" y1="0%" x2="57.421512%" y2="129.666703%" id="linearGradient-8">
            <stop stop-color="#FFFFFF" stop-opacity="0.173978365" offset="0%"></stop>
            <stop stop-color="#FFFFFF" offset="100%"></stop>
        </linearGradient>
        <rect id="path-9" x="161" y="126" width="58" height="308"></rect>
        <mask id="mask-10" maskContentUnits="userSpaceOnUse" maskUnits="objectBoundingBox" x="0" y="0" width="58" height="308" fill="white">
            <use xlink:href="#path-9"></use>
        </mask>
        <rect id="path-11" x="778" y="126" width="58" height="308"></rect>
        <mask id="mask-12" maskContentUnits="userSpaceOnUse" maskUnits="objectBoundingBox" x="0" y="0" width="58" height="308" fill="white">
            <use xlink:href="#path-11"></use>
        </mask>
        <linearGradient x1="-146.04676%" y1="49.5916598%" x2="259.284873%" y2="50.6506223%" id="linearGradient-13">
            <stop stop-color="#FFFFFF" stop-opacity="0.173978365" offset="0%"></stop>
            <stop stop-color="#FFFFFF" offset="100%"></stop>
        </linearGradient>
        <rect id="path-14" x="161" y="126" width="675" height="61"></rect>
        <mask id="mask-15" maskContentUnits="userSpaceOnUse" maskUnits="objectBoundingBox" x="0" y="0" width="675" height="61" fill="white">
            <use xlink:href="#path-14"></use>
        </mask>
        <rect id="path-16" x="161" y="373" width="675" height="61"></rect>
        <mask id="mask-17" maskContentUnits="userSpaceOnUse" maskUnits="objectBoundingBox" x="0" y="0" width="675" height="61" fill="white">
            <use xlink:href="#path-16"></use>
        </mask>
        <linearGradient x1="50%" y1="0%" x2="105.984692%" y2="120.402245%" id="linearGradient-18">
            <stop stop-color="#FFFFFF" offset="0%"></stop>
            <stop stop-color="#3056B6" offset="100%"></stop>
        </linearGradient>
    </defs>
    <g id="Artboard-Copy" stroke="none" stroke-width="1" fill="none" fill-rule="evenodd">
        <rect id="Rectangle" fill="#FFFFFF" x="0" y="233" width="1050" height="817"></rect>
        <g id="identitylogo-copy" transform="translate(229.000000, 913.000000)">
            <path d="M0.230645161,20.9807487 L0.230645161,21.0016043" id="Path" stroke="#A8AFBA" stroke-width="0.5"></path>
            <path d="M7.52741935,21.231016 L7.52741935,21.2518717" id="Path" stroke="#A8AFBA" stroke-width="0.5"></path>
            <path d="M29.5016129,24.3385027 C29.5016129,32.3679144 22.9596774,38.8957219 14.8870968,38.8957219 C6.81451613,38.8957219 0.272580645,32.3679144 0.272580645,24.3385027 C0.272580645,16.3090909 6.81451613,9.78128342 14.8870968,9.78128342 C22.9596774,9.78128342 29.5016129,16.2882353 29.5016129,24.3385027 Z" id="Path"></path>
            <path d="M7.48548387,3.60802139 C7.48548387,5.58930481 5.87096774,7.19518717 3.87903226,7.19518717 C1.88709677,7.19518717 0.272580645,5.58930481 0.272580645,3.60802139 C0.272580645,1.62673797 1.88709677,0.020855615 3.87903226,0.020855615 C5.87096774,0.020855615 7.48548387,1.62673797 7.48548387,3.60802139" id="Path" fill="#3172F4" fill-rule="nonzero"></path>
            <g id="Group" transform="translate(0.209677, 9.593583)">
                <path d="M10.1274194,20.959893 C11.4064516,21.8775401 12.9790323,22.4197861 14.6774194,22.4197861 C15.7887097,22.4197861 16.8580645,22.1695187 17.8225806,21.7524064 C18.283871,21.8983957 19.8145161,22.4197861 19.8564516,22.2737968 C19.8983871,22.1695187 19.5419355,21.4604278 19.3322581,20.8764706 C21.1983871,19.4791444 22.4145161,17.2475936 22.4145161,14.7240642 C22.4145161,10.4695187 18.9548387,7.02834225 14.6774194,7.02834225 C12.6854839,7.02834225 10.8822581,7.77914439 9.4983871,8.98877005 L9.54032258,14.5780749 L10.1274194,20.959893 Z" id="Path"></path>
                <path d="M14.6774194,0.16684492 C12.8322581,0.16684492 11.0709677,0.500534759 9.43548387,1.12620321 C4.2983871,3.08663102 0.54516129,7.82085561 0.0838709677,13.4935829 L0.0838709677,14.3903743 L0.0838709677,15.9545455 C0.0838709677,16.0588235 0.10483871,16.1839572 0.10483871,16.2882353 C0.629032258,19.7919786 2.68387097,22.8786096 5.91290323,25.1727273 C5.95483871,25.2352941 6.01774194,25.297861 6.08064516,25.3187166 L7.19193548,27.2374332 C8.32419355,27.9048128 9.54032258,28.4262032 10.8403226,28.7807487 C12.0564516,29.1144385 13.3354839,29.2812834 14.6774194,29.2812834 C22.7709677,29.2812834 29.333871,22.7534759 29.333871,14.7032086 C29.3129032,6.69465241 22.75,0.16684492 14.6774194,0.16684492 Z M19.3112903,20.8973262 C19.5209677,21.4812834 19.8774194,22.1903743 19.8354839,22.2946524 C19.7935484,22.4406417 18.2419355,21.940107 17.8016129,21.773262 C16.8370968,22.1903743 15.7887097,22.4406417 14.6564516,22.4406417 C12.9580645,22.4406417 11.3854839,21.8983957 10.1064516,20.9807487 C8.17741935,19.5625668 6.91935484,17.3101604 6.91935484,14.7449198 C6.91935484,12.4716578 7.90483871,10.4278075 9.47741935,9.00962567 C10.8403226,7.77914439 12.6645161,7.04919786 14.6564516,7.04919786 C18.933871,7.04919786 22.3935484,10.4903743 22.3935484,14.7449198 C22.4145161,17.2475936 21.1983871,19.4791444 19.3112903,20.8973262 Z" id="Shape" fill="#3172F4" fill-rule="nonzero"></path>
                <path d="M6.91935484,14.7449198 C6.91935484,12.4716578 7.90483871,10.4278075 9.47741935,9.00962567 L9.41451613,1.12620321 C4.27741935,3.08663102 0.524193548,7.82085561 0.0629032258,13.4935829 L0.0629032258,14.3903743 L0.0629032258,15.9545455 C0.0629032258,16.0588235 0.0838709677,16.1839572 0.0838709677,16.2882353 C0.608064516,19.7919786 2.66290323,22.8786096 5.89193548,25.1727273 C5.93387097,25.2352941 5.99677419,25.297861 6.05967742,25.3187166 L7.17096774,27.2374332 C8.30322581,27.9048128 9.51935484,28.4262032 10.8193548,28.7807487 L10.1064516,20.9390374 C8.17741935,19.5625668 6.91935484,17.3101604 6.91935484,14.7449198 Z" id="Path" fill="url(#linearGradient-1)" fill-rule="nonzero" opacity="0.3"></path>
            </g>
            <path d="M0.293548387,9.71871658 L0.293548387,11.8459893 L0.293548387,22.6700535 L0.293548387,22.7326203 L0.293548387,24.0048128 L0.293548387,25.7149733 C0.65,29.302139 2.22258065,32.4304813 4.71774194,34.7663102 C4.73870968,34.828877 4.78064516,34.8914439 4.84354839,34.9122995 L5.03225806,35.0582888 C5.57741935,35.5379679 6.14354839,35.9759358 6.7516129,36.3930481 L7.46451613,36.9352941 L7.46451613,24.1925134 L7.46451613,14.0983957 C5.53548387,12.0545455 3.08225806,10.5112299 0.293548387,9.71871658" id="Path" fill="#3172F4" fill-rule="nonzero"></path>
            <g id="Group" transform="translate(10.274194, 10.427807)" fill-rule="nonzero">
                <path d="M15.9774194,4.71336898 L15.9774194,9.73957219 L15.9774194,15.4331551 C15.6,19.1245989 13.8177419,19.6877005 11.1967742,22.0652406 C10.5258065,22.6700535 9.81290323,23.2331551 9.03709677,23.7128342 L9.03709677,21.3352941 C8.55483871,21.2101604 7.98870968,21.0224599 7.75806452,20.9390374 C6.79354839,21.3561497 5.74516129,21.6064171 4.61290323,21.6064171 C2.91451613,21.6064171 1.34193548,21.0641711 0.0629032258,20.1465241 L0.775806452,27.9882353 C1.99193548,28.3219251 3.27096774,28.4887701 4.61290323,28.4887701 C12.7064516,28.4887701 19.2693548,21.9609626 19.2693548,13.9106952 C19.2483871,10.4278075 18.0322581,7.2368984 15.9774194,4.71336898 Z" id="Path" fill="#3172F4"></path>
                <path d="M11.1967742,22.0860963 C13.8177419,19.7294118 15.6,19.1663102 15.9774194,15.4540107 L15.9774194,9.76042781 L15.9774194,4.7342246 C14.1951613,2.54438503 11.783871,0.896791444 9.03709677,0.020855615 L9.03709677,4.71336898 L9.03709677,7.61229947 C11.05,9.00962567 12.35,11.3037433 12.35,13.9315508 C12.35,16.4342246 11.133871,18.6657754 9.26774194,20.0839572 C9.47741935,20.6679144 9.83387097,21.3770053 9.79193548,21.4812834 C9.77096774,21.5438503 9.43548387,21.4812834 9.03709677,21.3770053 L9.03709677,23.7545455 C9.81290323,23.2331551 10.5258065,22.6909091 11.1967742,22.0860963 Z" id="Path" fill="#3172F4"></path>
                <path d="M12.35,21.1058824 C12.3709677,21.1058824 12.35,21.126738 12.35,21.1058824 C14.3629032,19.4582888 15.6419355,18.6032086 15.9774194,15.4540107 L15.9774194,9.76042781 L15.9774194,4.7342246 C14.1951613,2.54438503 11.783871,0.896791444 9.03709677,0.020855615 L9.03709677,4.71336898 L9.03709677,7.61229947 C11.05,9.00962567 12.35,11.3037433 12.35,13.9315508 C12.35,16.2882353 12.35,20.8139037 12.3290323,21.126738 C12.3080645,21.126738 12.3290323,21.126738 12.35,21.1058824 Z" id="Path" fill="url(#linearGradient-2)" opacity="0.3"></path>
            </g>
            <path d="M29.5225806,0 L29.5225806,19.1037433 L29.5225806,24.7973262 C29.1451613,28.4887701 27.3629032,29.0518717 24.7419355,31.4294118 C24.0709677,32.0342246 23.3580645,32.5973262 22.5822581,33.0770053 L22.5822581,22.9203209 L22.5822581,14.0566845 L22.5822581,4.25454545 C24.4274194,2.25240642 26.8177419,0.771657754 29.5225806,0" id="Path" fill="#3172F4" fill-rule="nonzero"></path>
            <g id="Group" transform="translate(37.322581, 9.593583)">
                <polygon id="Path" fill="#000000" fill-rule="nonzero" points="2.62096774 17.7064171 0.188709677 17.7064171 0.188709677 4.85935829 2.62096774 4.85935829"></polygon>
                <path d="M16.4596774,17.7064171 L14.0903226,17.7064171 L14.0903226,16.4550802 L14.0483871,16.4550802 C13.1677419,17.4144385 11.8467742,17.9149733 10.1903226,17.9149733 C6.14354839,17.9149733 4.10967742,15.1620321 4.10967742,11.4080214 C4.10967742,7.59144385 6.14354839,4.77593583 10.1903226,4.77593583 C11.783871,4.77593583 13.2096774,5.38074866 14.0483871,6.34010695 L14.0903226,6.34010695 L14.0903226,0.0625668449 L16.4596774,0.0625668449 L16.4596774,17.7064171 Z M10.3580645,6.90320856 C7.59032258,6.90320856 6.47903226,8.82192513 6.47903226,11.3663102 C6.47903226,13.9106952 7.5483871,15.7668449 10.3580645,15.7668449 C13.1677419,15.7668449 14.2370968,13.9106952 14.2370968,11.3663102 C14.2370968,8.80106952 13.1887097,6.90320856 10.3580645,6.90320856 Z" id="Shape" fill="#000000" fill-rule="nonzero"></path>
                <path d="M30.3612903,12.3673797 L20.0451613,12.3673797 L20.2967742,12.6176471 C20.6532258,14.5989305 21.9532258,15.8085561 24.2596774,15.8085561 C25.6016129,15.8085561 26.7129032,15.328877 27.7403226,14.3695187 L29.3758065,15.9962567 C27.9290323,17.3101604 26.2306452,17.9149733 24.2806452,17.9149733 C19.8774194,17.9149733 17.8435484,15.0994652 17.8435484,11.4497326 C17.8435484,7.59144385 20.1709677,4.77593583 24.1967742,4.77593583 C28.4532258,4.77593583 30.466129,7.6540107 30.466129,11.4497326 C30.4241935,11.7417112 30.4032258,12.0336898 30.3612903,12.3673797 Z M28.1806452,10.3026738 L27.9290323,10.0524064 C27.5516129,8.11283422 26.3354839,6.86149733 24.1548387,6.86149733 C21.8903226,6.86149733 20.7370968,8.17540107 20.3387097,10.0524064 L20.066129,10.3026738 L28.1806452,10.3026738 Z" id="Shape" fill="#000000" fill-rule="nonzero"></path>
                <path d="M43.5290323,17.7064171 L41.1596774,17.7064171 L41.1596774,10.0106952 C41.1596774,8.17540107 40.6145161,6.88235294 37.8467742,6.88235294 C35.7709677,6.88235294 34.1564516,8.00855615 34.1564516,10.1775401 L34.1564516,17.7064171 L31.7870968,17.7064171 L31.7870968,4.96363636 L34.1564516,4.96363636 L34.1564516,6.34010695 L34.1983871,6.34010695 C35.0790323,5.35989305 36.6096774,4.75508021 38.1193548,4.75508021 C41.4532258,4.75508021 43.5290323,6.50695187 43.5290323,9.65614973 L43.5290323,17.7064171 L43.5290323,17.7064171 Z" id="Path" fill="#000000" fill-rule="nonzero"></path>
                <path d="M53.5306452,16.3925134 C52.1467742,17.4352941 51.0145161,17.9149733 49.6516129,17.9149733 C47.1983871,17.9149733 45.7725806,16.3508021 45.7725806,13.7647059 L45.7725806,7.25775401 L45.9193548,7.00748663 L44.3048387,7.00748663 L44.3048387,4.96363636 L45.9193548,4.96363636 L45.7725806,4.71336898 L45.7725806,1.27219251 L48.1419355,0.020855615 L48.1419355,4.71336898 L48.016129,4.96363636 L52.0419355,4.96363636 L52.0419355,7.00748663 L48.016129,7.00748663 L48.1419355,7.25775401 L48.1419355,13.7855615 C48.1419355,15.1203209 48.7709677,15.7877005 49.7564516,15.7877005 C50.5532258,15.7877005 51.1193548,15.5374332 51.9580645,14.8074866 L53.5306452,16.3925134 Z" id="Path" fill="#000000" fill-rule="nonzero"></path>
                <path d="M55.1451613,3.0657754 C54.2435484,3.0657754 53.7193548,2.44010695 53.7193548,1.56417112 C53.7193548,0.688235294 54.2645161,0.0625668449 55.1451613,0.0625668449 C56.0467742,0.0625668449 56.5709677,0.688235294 56.5709677,1.56417112 C56.5709677,2.44010695 56.0258065,3.0657754 55.1451613,3.0657754 Z M56.3403226,17.497861 L53.9709677,17.497861 L53.9709677,4.75508021 L56.3403226,4.75508021 L56.3403226,17.497861 Z" id="Shape" fill="#000000" fill-rule="nonzero"></path>
                <path d="M66.4258065,16.3925134 C65.0419355,17.4352941 63.9096774,17.9149733 62.5467742,17.9149733 C60.0935484,17.9149733 58.6677419,16.3508021 58.6677419,13.7647059 L58.6677419,7.25775401 L58.8145161,7.00748663 L57.2,7.00748663 L57.2,4.96363636 L58.8145161,4.96363636 L58.6677419,4.71336898 L58.6677419,1.27219251 L61.0370968,0.020855615 L61.0370968,4.71336898 L60.9112903,4.96363636 L64.9370968,4.96363636 L64.9370968,7.00748663 L60.9112903,7.00748663 L61.0370968,7.25775401 L61.0370968,13.7855615 C61.0370968,15.1203209 61.666129,15.7877005 62.6516129,15.7877005 C63.4483871,15.7877005 64.0145161,15.5374332 64.8532258,14.8074866 L66.4258065,16.3925134 Z" id="Path" fill="#000000" fill-rule="nonzero"></path>
                <g transform="translate(66.048387, 2.711230)" id="Path">
                    <polygon points="6.43709677 8.17540107 7.00322581 9.90641711 7.04516129 9.90641711 7.59032258 8.17540107 10.5048387 0.959358289 3.18709677 0.959358289"></polygon>
                    <path d="M11.3225806,0.12513369 L11.3225806,0.959358289 L10.483871,0.959358289 L7.56935484,8.17540107 L7.02419355,9.8855615 L6.98225806,9.8855615 L6.41612903,8.17540107 L3.18709677,0.959358289 L2.66290323,0.959358289 L2.66290323,0.145989305 L0.188709677,0.145989305 L5.85,12.3673797 C5.2,13.9524064 4.44516129,14.6614973 3.52258065,14.6614973 C2.80967742,14.6614973 2.03387097,14.4737968 1.13225806,13.9941176 L1.13225806,16.2673797 C1.97096774,16.684492 2.80967742,16.8513369 3.77419355,16.8513369 C5.51451613,16.8513369 6.94032258,15.6625668 7.71612903,13.8064171 L13.5032258,0.12513369 L11.3225806,0.12513369 Z" fill="#000000" fill-rule="nonzero"></path>
                    <polygon fill="#000000" fill-rule="nonzero" points="3.18709677 0.959358289 2.83064516 0.145989305 2.66290323 0.145989305 2.66290323 0.959358289"></polygon>
                    <polyline fill="#000000" fill-rule="nonzero" points="10.8193548 0.145989305 10.5048387 0.959358289 11.3225806 0.959358289 11.3225806 0.12513369"></polyline>
                </g>
            </g>
            <path d="M38.9790323,12.5550802 C38.0774194,12.5550802 37.5532258,11.9294118 37.5532258,11.0534759 C37.5532258,10.1775401 38.0983871,9.55187166 38.9790323,9.55187166 C39.8806452,9.55187166 40.4048387,10.1775401 40.4048387,11.0534759 C40.4048387,11.9294118 39.8596774,12.5550802 38.9790323,12.5550802 Z" id="Path" fill="#000000" fill-rule="nonzero"></path>
        </g>
        <g id="identitylogo-copy-3" transform="translate(703.000000, 913.000000)">
            <path d="M0.230645161,20.9807487 L0.230645161,21.0016043" id="Path" stroke="#A8AFBA" stroke-width="0.5"></path>
            <path d="M7.52741935,21.231016 L7.52741935,21.2518717" id="Path" stroke="#A8AFBA" stroke-width="0.5"></path>
            <path d="M29.5016129,24.3385027 C29.5016129,32.3679144 22.9596774,38.8957219 14.8870968,38.8957219 C6.81451613,38.8957219 0.272580645,32.3679144 0.272580645,24.3385027 C0.272580645,16.3090909 6.81451613,9.78128342 14.8870968,9.78128342 C22.9596774,9.78128342 29.5016129,16.2882353 29.5016129,24.3385027 Z" id="Path"></path>
            <path d="M7.48548387,3.60802139 C7.48548387,5.58930481 5.87096774,7.19518717 3.87903226,7.19518717 C1.88709677,7.19518717 0.272580645,5.58930481 0.272580645,3.60802139 C0.272580645,1.62673797 1.88709677,0.020855615 3.87903226,0.020855615 C5.87096774,0.020855615 7.48548387,1.62673797 7.48548387,3.60802139" id="Path" fill="#000000" fill-rule="nonzero"></path>
            <g id="Group" transform="translate(0.209677, 9.593583)">
                <path d="M10.1274194,20.959893 C11.4064516,21.8775401 12.9790323,22.4197861 14.6774194,22.4197861 C15.7887097,22.4197861 16.8580645,22.1695187 17.8225806,21.7524064 C18.283871,21.8983957 19.8145161,22.4197861 19.8564516,22.2737968 C19.8983871,22.1695187 19.5419355,21.4604278 19.3322581,20.8764706 C21.1983871,19.4791444 22.4145161,17.2475936 22.4145161,14.7240642 C22.4145161,10.4695187 18.9548387,7.02834225 14.6774194,7.02834225 C12.6854839,7.02834225 10.8822581,7.77914439 9.4983871,8.98877005 L9.54032258,14.5780749 L10.1274194,20.959893 Z" id="Path"></path>
                <path d="M14.6774194,0.16684492 C12.8322581,0.16684492 11.0709677,0.500534759 9.43548387,1.12620321 C4.2983871,3.08663102 0.54516129,7.82085561 0.0838709677,13.4935829 L0.0838709677,14.3903743 L0.0838709677,15.9545455 C0.0838709677,16.0588235 0.10483871,16.1839572 0.10483871,16.2882353 C0.629032258,19.7919786 2.68387097,22.8786096 5.91290323,25.1727273 C5.95483871,25.2352941 6.01774194,25.297861 6.08064516,25.3187166 L7.19193548,27.2374332 C8.32419355,27.9048128 9.54032258,28.4262032 10.8403226,28.7807487 C12.0564516,29.1144385 13.3354839,29.2812834 14.6774194,29.2812834 C22.7709677,29.2812834 29.333871,22.7534759 29.333871,14.7032086 C29.3129032,6.69465241 22.75,0.16684492 14.6774194,0.16684492 Z M19.3112903,20.8973262 C19.5209677,21.4812834 19.8774194,22.1903743 19.8354839,22.2946524 C19.7935484,22.4406417 18.2419355,21.940107 17.8016129,21.773262 C16.8370968,22.1903743 15.7887097,22.4406417 14.6564516,22.4406417 C12.9580645,22.4406417 11.3854839,21.8983957 10.1064516,20.9807487 C8.17741935,19.5625668 6.91935484,17.3101604 6.91935484,14.7449198 C6.91935484,12.4716578 7.90483871,10.4278075 9.47741935,9.00962567 C10.8403226,7.77914439 12.6645161,7.04919786 14.6564516,7.04919786 C18.933871,7.04919786 22.3935484,10.4903743 22.3935484,14.7449198 C22.4145161,17.2475936 21.1983871,19.4791444 19.3112903,20.8973262 Z" id="Shape" fill="#000000" fill-rule="nonzero"></path>
                <path d="M6.91935484,14.7449198 C6.91935484,12.4716578 7.90483871,10.4278075 9.47741935,9.00962567 L9.41451613,1.12620321 C4.27741935,3.08663102 0.524193548,7.82085561 0.0629032258,13.4935829 L0.0629032258,14.3903743 L0.0629032258,15.9545455 C0.0629032258,16.0588235 0.0838709677,16.1839572 0.0838709677,16.2882353 C0.608064516,19.7919786 2.66290323,22.8786096 5.89193548,25.1727273 C5.93387097,25.2352941 5.99677419,25.297861 6.05967742,25.3187166 L7.17096774,27.2374332 C8.30322581,27.9048128 9.51935484,28.4262032 10.8193548,28.7807487 L10.1064516,20.9390374 C8.17741935,19.5625668 6.91935484,17.3101604 6.91935484,14.7449198 Z" id="Path" fill="url(#linearGradient-3)" fill-rule="nonzero" opacity="0.3"></path>
            </g>
            <path d="M0.293548387,9.71871658 L0.293548387,11.8459893 L0.293548387,22.6700535 L0.293548387,22.7326203 L0.293548387,24.0048128 L0.293548387,25.7149733 C0.65,29.302139 2.22258065,32.4304813 4.71774194,34.7663102 C4.73870968,34.828877 4.78064516,34.8914439 4.84354839,34.9122995 L5.03225806,35.0582888 C5.57741935,35.5379679 6.14354839,35.9759358 6.7516129,36.3930481 L7.46451613,36.9352941 L7.46451613,24.1925134 L7.46451613,14.0983957 C5.53548387,12.0545455 3.08225806,10.5112299 0.293548387,9.71871658" id="Path" fill="#000000" fill-rule="nonzero"></path>
            <g id="Group" transform="translate(10.274194, 10.427807)" fill="#000000" fill-rule="nonzero">
                <path d="M15.9774194,4.71336898 L15.9774194,9.73957219 L15.9774194,15.4331551 C15.6,19.1245989 13.8177419,19.6877005 11.1967742,22.0652406 C10.5258065,22.6700535 9.81290323,23.2331551 9.03709677,23.7128342 L9.03709677,21.3352941 C8.55483871,21.2101604 7.98870968,21.0224599 7.75806452,20.9390374 C6.79354839,21.3561497 5.74516129,21.6064171 4.61290323,21.6064171 C2.91451613,21.6064171 1.34193548,21.0641711 0.0629032258,20.1465241 L0.775806452,27.9882353 C1.99193548,28.3219251 3.27096774,28.4887701 4.61290323,28.4887701 C12.7064516,28.4887701 19.2693548,21.9609626 19.2693548,13.9106952 C19.2483871,10.4278075 18.0322581,7.2368984 15.9774194,4.71336898 Z" id="Path"></path>
                <path d="M11.1967742,22.0860963 C13.8177419,19.7294118 15.6,19.1663102 15.9774194,15.4540107 L15.9774194,9.76042781 L15.9774194,4.7342246 C14.1951613,2.54438503 11.783871,0.896791444 9.03709677,0.020855615 L9.03709677,4.71336898 L9.03709677,7.61229947 C11.05,9.00962567 12.35,11.3037433 12.35,13.9315508 C12.35,16.4342246 11.133871,18.6657754 9.26774194,20.0839572 C9.47741935,20.6679144 9.83387097,21.3770053 9.79193548,21.4812834 C9.77096774,21.5438503 9.43548387,21.4812834 9.03709677,21.3770053 L9.03709677,23.7545455 C9.81290323,23.2331551 10.5258065,22.6909091 11.1967742,22.0860963 Z" id="Path"></path>
                <path d="M12.35,21.1058824 C12.3709677,21.1058824 12.35,21.126738 12.35,21.1058824 C14.3629032,19.4582888 15.6419355,18.6032086 15.9774194,15.4540107 L15.9774194,9.76042781 L15.9774194,4.7342246 C14.1951613,2.54438503 11.783871,0.896791444 9.03709677,0.020855615 L9.03709677,4.71336898 L9.03709677,7.61229947 C11.05,9.00962567 12.35,11.3037433 12.35,13.9315508 C12.35,16.2882353 12.35,20.8139037 12.3290323,21.126738 C12.3080645,21.126738 12.3290323,21.126738 12.35,21.1058824 Z" id="Path" opacity="0.3"></path>
            </g>
            <path d="M29.5225806,0 L29.5225806,19.1037433 L29.5225806,24.7973262 C29.1451613,28.4887701 27.3629032,29.0518717 24.7419355,31.4294118 C24.0709677,32.0342246 23.3580645,32.5973262 22.5822581,33.0770053 L22.5822581,22.9203209 L22.5822581,14.0566845 L22.5822581,4.25454545 C24.4274194,2.25240642 26.8177419,0.771657754 29.5225806,0" id="Path" fill="#000000" fill-rule="nonzero"></path>
            <g id="Group" transform="translate(37.322581, 9.593583)">
                <polygon id="Path" fill="#000000" fill-rule="nonzero" points="2.62096774 17.7064171 0.188709677 17.7064171 0.188709677 4.85935829 2.62096774 4.85935829"></polygon>
                <path d="M16.4596774,17.7064171 L14.0903226,17.7064171 L14.0903226,16.4550802 L14.0483871,16.4550802 C13.1677419,17.4144385 11.8467742,17.9149733 10.1903226,17.9149733 C6.14354839,17.9149733 4.10967742,15.1620321 4.10967742,11.4080214 C4.10967742,7.59144385 6.14354839,4.77593583 10.1903226,4.77593583 C11.783871,4.77593583 13.2096774,5.38074866 14.0483871,6.34010695 L14.0903226,6.34010695 L14.0903226,0.0625668449 L16.4596774,0.0625668449 L16.4596774,17.7064171 Z M10.3580645,6.90320856 C7.59032258,6.90320856 6.47903226,8.82192513 6.47903226,11.3663102 C6.47903226,13.9106952 7.5483871,15.7668449 10.3580645,15.7668449 C13.1677419,15.7668449 14.2370968,13.9106952 14.2370968,11.3663102 C14.2370968,8.80106952 13.1887097,6.90320856 10.3580645,6.90320856 Z" id="Shape" fill="#000000" fill-rule="nonzero"></path>
                <path d="M30.3612903,12.3673797 L20.0451613,12.3673797 L20.2967742,12.6176471 C20.6532258,14.5989305 21.9532258,15.8085561 24.2596774,15.8085561 C25.6016129,15.8085561 26.7129032,15.328877 27.7403226,14.3695187 L29.3758065,15.9962567 C27.9290323,17.3101604 26.2306452,17.9149733 24.2806452,17.9149733 C19.8774194,17.9149733 17.8435484,15.0994652 17.8435484,11.4497326 C17.8435484,7.59144385 20.1709677,4.77593583 24.1967742,4.77593583 C28.4532258,4.77593583 30.466129,7.6540107 30.466129,11.4497326 C30.4241935,11.7417112 30.4032258,12.0336898 30.3612903,12.3673797 Z M28.1806452,10.3026738 L27.9290323,10.0524064 C27.5516129,8.11283422 26.3354839,6.86149733 24.1548387,6.86149733 C21.8903226,6.86149733 20.7370968,8.17540107 20.3387097,10.0524064 L20.066129,10.3026738 L28.1806452,10.3026738 Z" id="Shape" fill="#000000" fill-rule="nonzero"></path>
                <path d="M43.5290323,17.7064171 L41.1596774,17.7064171 L41.1596774,10.0106952 C41.1596774,8.17540107 40.6145161,6.88235294 37.8467742,6.88235294 C35.7709677,6.88235294 34.1564516,8.00855615 34.1564516,10.1775401 L34.1564516,17.7064171 L31.7870968,17.7064171 L31.7870968,4.96363636 L34.1564516,4.96363636 L34.1564516,6.34010695 L34.1983871,6.34010695 C35.0790323,5.35989305 36.6096774,4.75508021 38.1193548,4.75508021 C41.4532258,4.75508021 43.5290323,6.50695187 43.5290323,9.65614973 L43.5290323,17.7064171 L43.5290323,17.7064171 Z" id="Path" fill="#000000" fill-rule="nonzero"></path>
                <path d="M53.5306452,16.3925134 C52.1467742,17.4352941 51.0145161,17.9149733 49.6516129,17.9149733 C47.1983871,17.9149733 45.7725806,16.3508021 45.7725806,13.7647059 L45.7725806,7.25775401 L45.9193548,7.00748663 L44.3048387,7.00748663 L44.3048387,4.96363636 L45.9193548,4.96363636 L45.7725806,4.71336898 L45.7725806,1.27219251 L48.1419355,0.020855615 L48.1419355,4.71336898 L48.016129,4.96363636 L52.0419355,4.96363636 L52.0419355,7.00748663 L48.016129,7.00748663 L48.1419355,7.25775401 L48.1419355,13.7855615 C48.1419355,15.1203209 48.7709677,15.7877005 49.7564516,15.7877005 C50.5532258,15.7877005 51.1193548,15.5374332 51.9580645,14.8074866 L53.5306452,16.3925134 Z" id="Path" fill="#000000" fill-rule="nonzero"></path>
                <path d="M55.1451613,3.0657754 C54.2435484,3.0657754 53.7193548,2.44010695 53.7193548,1.56417112 C53.7193548,0.688235294 54.2645161,0.0625668449 55.1451613,0.0625668449 C56.0467742,0.0625668449 56.5709677,0.688235294 56.5709677,1.56417112 C56.5709677,2.44010695 56.0258065,3.0657754 55.1451613,3.0657754 Z M56.3403226,17.497861 L53.9709677,17.497861 L53.9709677,4.75508021 L56.3403226,4.75508021 L56.3403226,17.497861 Z" id="Shape" fill="#000000" fill-rule="nonzero"></path>
                <path d="M66.4258065,16.3925134 C65.0419355,17.4352941 63.9096774,17.9149733 62.5467742,17.9149733 C60.0935484,17.9149733 58.6677419,16.3508021 58.6677419,13.7647059 L58.6677419,7.25775401 L58.8145161,7.00748663 L57.2,7.00748663 L57.2,4.96363636 L58.8145161,4.96363636 L58.6677419,4.71336898 L58.6677419,1.27219251 L61.0370968,0.020855615 L61.0370968,4.71336898 L60.9112903,4.96363636 L64.9370968,4.96363636 L64.9370968,7.00748663 L60.9112903,7.00748663 L61.0370968,7.25775401 L61.0370968,13.7855615 C61.0370968,15.1203209 61.666129,15.7877005 62.6516129,15.7877005 C63.4483871,15.7877005 64.0145161,15.5374332 64.8532258,14.8074866 L66.4258065,16.3925134 Z" id="Path" fill="#000000" fill-rule="nonzero"></path>
                <g transform="translate(66.048387, 2.711230)" id="Path">
                    <polygon points="6.43709677 8.17540107 7.00322581 9.90641711 7.04516129 9.90641711 7.59032258 8.17540107 10.5048387 0.959358289 3.18709677 0.959358289"></polygon>
                    <path d="M11.3225806,0.12513369 L11.3225806,0.959358289 L10.483871,0.959358289 L7.56935484,8.17540107 L7.02419355,9.8855615 L6.98225806,9.8855615 L6.41612903,8.17540107 L3.18709677,0.959358289 L2.66290323,0.959358289 L2.66290323,0.145989305 L0.188709677,0.145989305 L5.85,12.3673797 C5.2,13.9524064 4.44516129,14.6614973 3.52258065,14.6614973 C2.80967742,14.6614973 2.03387097,14.4737968 1.13225806,13.9941176 L1.13225806,16.2673797 C1.97096774,16.684492 2.80967742,16.8513369 3.77419355,16.8513369 C5.51451613,16.8513369 6.94032258,15.6625668 7.71612903,13.8064171 L13.5032258,0.12513369 L11.3225806,0.12513369 Z" fill="#000000" fill-rule="nonzero"></path>
                    <polygon fill="#000000" fill-rule="nonzero" points="3.18709677 0.959358289 2.83064516 0.145989305 2.66290323 0.145989305 2.66290323 0.959358289"></polygon>
                    <polyline fill="#000000" fill-rule="nonzero" points="10.8193548 0.145989305 10.5048387 0.959358289 11.3225806 0.959358289 11.3225806 0.12513369"></polyline>
                </g>
            </g>
            <path d="M38.9790323,12.5550802 C38.0774194,12.5550802 37.5532258,11.9294118 37.5532258,11.0534759 C37.5532258,10.1775401 38.0983871,9.55187166 38.9790323,9.55187166 C39.8806452,9.55187166 40.4048387,10.1775401 40.4048387,11.0534759 C40.4048387,11.9294118 39.8596774,12.5550802 38.9790323,12.5550802 Z" id="Path" fill="#000000" fill-rule="nonzero"></path>
        </g>
        <g id="identitylogo-copy-2" transform="translate(467.000000, 913.000000)">
            <path d="M29.5016129,24.3385027 C29.5016129,32.3679144 22.9596774,38.8957219 14.8870968,38.8957219 C6.81451613,38.8957219 0.272580645,32.3679144 0.272580645,24.3385027 C0.272580645,16.3090909 6.81451613,9.78128342 14.8870968,9.78128342 C22.9596774,9.78128342 29.5016129,16.2882353 29.5016129,24.3385027 Z" id="Path"></path>
            <path d="M7.48548387,3.60802139 C7.48548387,5.58930481 5.87096774,7.19518717 3.87903226,7.19518717 C1.88709677,7.19518717 0.272580645,5.58930481 0.272580645,3.60802139 C0.272580645,1.62673797 1.88709677,0.020855615 3.87903226,0.020855615 C5.87096774,0.020855615 7.48548387,1.62673797 7.48548387,3.60802139" id="Path" fill="#C3C2CB" fill-rule="nonzero"></path>
            <g id="Group" transform="translate(0.209677, 9.593583)">
                <path d="M10.1274194,20.959893 C11.4064516,21.8775401 12.9790323,22.4197861 14.6774194,22.4197861 C15.7887097,22.4197861 16.8580645,22.1695187 17.8225806,21.7524064 C18.283871,21.8983957 19.8145161,22.4197861 19.8564516,22.2737968 C19.8983871,22.1695187 19.5419355,21.4604278 19.3322581,20.8764706 C21.1983871,19.4791444 22.4145161,17.2475936 22.4145161,14.7240642 C22.4145161,10.4695187 18.9548387,7.02834225 14.6774194,7.02834225 C12.6854839,7.02834225 10.8822581,7.77914439 9.4983871,8.98877005 L9.54032258,14.5780749 L10.1274194,20.959893 Z" id="Path"></path>
                <path d="M14.6774194,0.16684492 C12.8322581,0.16684492 11.0709677,0.500534759 9.43548387,1.12620321 C4.2983871,3.08663102 0.54516129,7.82085561 0.0838709677,13.4935829 L0.0838709677,14.3903743 L0.0838709677,15.9545455 C0.0838709677,16.0588235 0.10483871,16.1839572 0.10483871,16.2882353 C0.629032258,19.7919786 2.68387097,22.8786096 5.91290323,25.1727273 C5.95483871,25.2352941 6.01774194,25.297861 6.08064516,25.3187166 L7.19193548,27.2374332 C8.32419355,27.9048128 9.54032258,28.4262032 10.8403226,28.7807487 C12.0564516,29.1144385 13.3354839,29.2812834 14.6774194,29.2812834 C22.7709677,29.2812834 29.333871,22.7534759 29.333871,14.7032086 C29.3129032,6.69465241 22.75,0.16684492 14.6774194,0.16684492 Z M19.3112903,20.8973262 C19.5209677,21.4812834 19.8774194,22.1903743 19.8354839,22.2946524 C19.7935484,22.4406417 18.2419355,21.940107 17.8016129,21.773262 C16.8370968,22.1903743 15.7887097,22.4406417 14.6564516,22.4406417 C12.9580645,22.4406417 11.3854839,21.8983957 10.1064516,20.9807487 C8.17741935,19.5625668 6.91935484,17.3101604 6.91935484,14.7449198 C6.91935484,12.4716578 7.90483871,10.4278075 9.47741935,9.00962567 C10.8403226,7.77914439 12.6645161,7.04919786 14.6564516,7.04919786 C18.933871,7.04919786 22.3935484,10.4903743 22.3935484,14.7449198 C22.4145161,17.2475936 21.1983871,19.4791444 19.3112903,20.8973262 Z" id="Shape" fill="#B7B6BE" fill-rule="nonzero"></path>
                <path d="M6.91935484,14.7449198 C6.91935484,12.4716578 7.90483871,10.4278075 9.47741935,9.00962567 L9.41451613,1.12620321 C4.27741935,3.08663102 0.524193548,7.82085561 0.0629032258,13.4935829 L0.0629032258,14.3903743 L0.0629032258,15.9545455 C0.0629032258,16.0588235 0.0838709677,16.1839572 0.0838709677,16.2882353 C0.608064516,19.7919786 2.66290323,22.8786096 5.89193548,25.1727273 C5.93387097,25.2352941 5.99677419,25.297861 6.05967742,25.3187166 L7.17096774,27.2374332 C8.30322581,27.9048128 9.51935484,28.4262032 10.8193548,28.7807487 L10.1064516,20.9390374 C8.17741935,19.5625668 6.91935484,17.3101604 6.91935484,14.7449198 Z" id="Path" fill="#B7B6BE" fill-rule="nonzero" opacity="0.3"></path>
            </g>
            <path d="M0.293548387,9.71871658 L0.293548387,11.8459893 L0.293548387,22.6700535 L0.293548387,22.7326203 L0.293548387,24.0048128 L0.293548387,25.7149733 C0.65,29.302139 2.22258065,32.4304813 4.71774194,34.7663102 C4.73870968,34.828877 4.78064516,34.8914439 4.84354839,34.9122995 L5.03225806,35.0582888 C5.57741935,35.5379679 6.14354839,35.9759358 6.7516129,36.3930481 L7.46451613,36.9352941 L7.46451613,24.1925134 L7.46451613,14.0983957 C5.53548387,12.0545455 3.08225806,10.5112299 0.293548387,9.71871658" id="Path" fill="url(#linearGradient-4)" fill-rule="nonzero"></path>
            <g id="Group" transform="translate(10.274194, 10.427807)" fill="#B7B6BE" fill-rule="nonzero">
                <path d="M15.9774194,4.71336898 L15.9774194,9.73957219 L15.9774194,15.4331551 C15.6,19.1245989 13.8177419,19.6877005 11.1967742,22.0652406 C10.5258065,22.6700535 9.81290323,23.2331551 9.03709677,23.7128342 L9.03709677,21.3352941 C8.55483871,21.2101604 7.98870968,21.0224599 7.75806452,20.9390374 C6.79354839,21.3561497 5.74516129,21.6064171 4.61290323,21.6064171 C2.91451613,21.6064171 1.34193548,21.0641711 0.0629032258,20.1465241 L0.775806452,27.9882353 C1.99193548,28.3219251 3.27096774,28.4887701 4.61290323,28.4887701 C12.7064516,28.4887701 19.2693548,21.9609626 19.2693548,13.9106952 C19.2483871,10.4278075 18.0322581,7.2368984 15.9774194,4.71336898 Z" id="Path"></path>
                <path d="M11.1967742,22.0860963 C13.8177419,19.7294118 15.6,19.1663102 15.9774194,15.4540107 L15.9774194,9.76042781 L15.9774194,4.7342246 C14.1951613,2.54438503 11.783871,0.896791444 9.03709677,0.020855615 L9.03709677,4.71336898 L9.03709677,7.61229947 C11.05,9.00962567 12.35,11.3037433 12.35,13.9315508 C12.35,16.4342246 11.133871,18.6657754 9.26774194,20.0839572 C9.47741935,20.6679144 9.83387097,21.3770053 9.79193548,21.4812834 C9.77096774,21.5438503 9.43548387,21.4812834 9.03709677,21.3770053 L9.03709677,23.7545455 C9.81290323,23.2331551 10.5258065,22.6909091 11.1967742,22.0860963 Z" id="Path"></path>
                <path d="M12.35,21.1058824 C12.3709677,21.1058824 12.35,21.126738 12.35,21.1058824 C14.3629032,19.4582888 15.6419355,18.6032086 15.9774194,15.4540107 L15.9774194,9.76042781 L15.9774194,4.7342246 C14.1951613,2.54438503 11.783871,0.896791444 9.03709677,0.020855615 L9.03709677,4.71336898 L9.03709677,7.61229947 C11.05,9.00962567 12.35,11.3037433 12.35,13.9315508 C12.35,16.2882353 12.35,20.8139037 12.3290323,21.126738 C12.3080645,21.126738 12.3290323,21.126738 12.35,21.1058824 Z" id="Path" opacity="0.3"></path>
            </g>
            <path d="M29.5225806,0 L29.5225806,19.1037433 L29.5225806,24.7973262 C29.1451613,28.4887701 27.3629032,29.0518717 24.7419355,31.4294118 C24.0709677,32.0342246 23.3580645,32.5973262 22.5822581,33.0770053 L22.5822581,22.9203209 L22.5822581,14.0566845 L22.5822581,4.25454545 C24.4274194,2.25240642 26.8177419,0.771657754 29.5225806,0" id="Path" fill="url(#linearGradient-5)" fill-rule="nonzero"></path>
            <g id="Group" transform="translate(37.322581, 9.593583)">
                <polygon id="Path" fill="#B7B6BE" fill-rule="nonzero" points="2.62096774 17.7064171 0.188709677 17.7064171 0.188709677 4.85935829 2.62096774 4.85935829"></polygon>
                <path d="M16.4596774,17.7064171 L14.0903226,17.7064171 L14.0903226,16.4550802 L14.0483871,16.4550802 C13.1677419,17.4144385 11.8467742,17.9149733 10.1903226,17.9149733 C6.14354839,17.9149733 4.10967742,15.1620321 4.10967742,11.4080214 C4.10967742,7.59144385 6.14354839,4.77593583 10.1903226,4.77593583 C11.783871,4.77593583 13.2096774,5.38074866 14.0483871,6.34010695 L14.0903226,6.34010695 L14.0903226,0.0625668449 L16.4596774,0.0625668449 L16.4596774,17.7064171 Z M10.3580645,6.90320856 C7.59032258,6.90320856 6.47903226,8.82192513 6.47903226,11.3663102 C6.47903226,13.9106952 7.5483871,15.7668449 10.3580645,15.7668449 C13.1677419,15.7668449 14.2370968,13.9106952 14.2370968,11.3663102 C14.2370968,8.80106952 13.1887097,6.90320856 10.3580645,6.90320856 Z" id="Shape" fill="#B7B6BE" fill-rule="nonzero"></path>
                <path d="M30.3612903,12.3673797 L20.0451613,12.3673797 L20.2967742,12.6176471 C20.6532258,14.5989305 21.9532258,15.8085561 24.2596774,15.8085561 C25.6016129,15.8085561 26.7129032,15.328877 27.7403226,14.3695187 L29.3758065,15.9962567 C27.9290323,17.3101604 26.2306452,17.9149733 24.2806452,17.9149733 C19.8774194,17.9149733 17.8435484,15.0994652 17.8435484,11.4497326 C17.8435484,7.59144385 20.1709677,4.77593583 24.1967742,4.77593583 C28.4532258,4.77593583 30.466129,7.6540107 30.466129,11.4497326 C30.4241935,11.7417112 30.4032258,12.0336898 30.3612903,12.3673797 Z M28.1806452,10.3026738 L27.9290323,10.0524064 C27.5516129,8.11283422 26.3354839,6.86149733 24.1548387,6.86149733 C21.8903226,6.86149733 20.7370968,8.17540107 20.3387097,10.0524064 L20.066129,10.3026738 L28.1806452,10.3026738 Z" id="Shape" fill="#B7B6BE" fill-rule="nonzero"></path>
                <path d="M43.5290323,17.7064171 L41.1596774,17.7064171 L41.1596774,10.0106952 C41.1596774,8.17540107 40.6145161,6.88235294 37.8467742,6.88235294 C35.7709677,6.88235294 34.1564516,8.00855615 34.1564516,10.1775401 L34.1564516,17.7064171 L31.7870968,17.7064171 L31.7870968,4.96363636 L34.1564516,4.96363636 L34.1564516,6.34010695 L34.1983871,6.34010695 C35.0790323,5.35989305 36.6096774,4.75508021 38.1193548,4.75508021 C41.4532258,4.75508021 43.5290323,6.50695187 43.5290323,9.65614973 L43.5290323,17.7064171 L43.5290323,17.7064171 Z" id="Path" fill="#B7B6BE" fill-rule="nonzero"></path>
                <path d="M53.5306452,16.3925134 C52.1467742,17.4352941 51.0145161,17.9149733 49.6516129,17.9149733 C47.1983871,17.9149733 45.7725806,16.3508021 45.7725806,13.7647059 L45.7725806,7.25775401 L45.9193548,7.00748663 L44.3048387,7.00748663 L44.3048387,4.96363636 L45.9193548,4.96363636 L45.7725806,4.71336898 L45.7725806,1.27219251 L48.1419355,0.020855615 L48.1419355,4.71336898 L48.016129,4.96363636 L52.0419355,4.96363636 L52.0419355,7.00748663 L48.016129,7.00748663 L48.1419355,7.25775401 L48.1419355,13.7855615 C48.1419355,15.1203209 48.7709677,15.7877005 49.7564516,15.7877005 C50.5532258,15.7877005 51.1193548,15.5374332 51.9580645,14.8074866 L53.5306452,16.3925134 Z" id="Path" fill="#B7B6BE" fill-rule="nonzero"></path>
                <path d="M55.1451613,3.0657754 C54.2435484,3.0657754 53.7193548,2.44010695 53.7193548,1.56417112 C53.7193548,0.688235294 54.2645161,0.0625668449 55.1451613,0.0625668449 C56.0467742,0.0625668449 56.5709677,0.688235294 56.5709677,1.56417112 C56.5709677,2.44010695 56.0258065,3.0657754 55.1451613,3.0657754 Z M56.3403226,17.497861 L53.9709677,17.497861 L53.9709677,4.75508021 L56.3403226,4.75508021 L56.3403226,17.497861 Z" id="Shape" fill="#B7B6BE" fill-rule="nonzero"></path>
                <path d="M66.4258065,16.3925134 C65.0419355,17.4352941 63.9096774,17.9149733 62.5467742,17.9149733 C60.0935484,17.9149733 58.6677419,16.3508021 58.6677419,13.7647059 L58.6677419,7.25775401 L58.8145161,7.00748663 L57.2,7.00748663 L57.2,4.96363636 L58.8145161,4.96363636 L58.6677419,4.71336898 L58.6677419,1.27219251 L61.0370968,0.020855615 L61.0370968,4.71336898 L60.9112903,4.96363636 L64.9370968,4.96363636 L64.9370968,7.00748663 L60.9112903,7.00748663 L61.0370968,7.25775401 L61.0370968,13.7855615 C61.0370968,15.1203209 61.666129,15.7877005 62.6516129,15.7877005 C63.4483871,15.7877005 64.0145161,15.5374332 64.8532258,14.8074866 L66.4258065,16.3925134 Z" id="Path" fill="#B7B6BE" fill-rule="nonzero"></path>
                <g transform="translate(66.048387, 2.711230)" id="Path">
                    <polygon points="6.43709677 8.17540107 7.00322581 9.90641711 7.04516129 9.90641711 7.59032258 8.17540107 10.5048387 0.959358289 3.18709677 0.959358289"></polygon>
                    <path d="M11.3225806,0.12513369 L11.3225806,0.959358289 L10.483871,0.959358289 L7.56935484,8.17540107 L7.02419355,9.8855615 L6.98225806,9.8855615 L6.41612903,8.17540107 L3.18709677,0.959358289 L2.66290323,0.959358289 L2.66290323,0.145989305 L0.188709677,0.145989305 L5.85,12.3673797 C5.2,13.9524064 4.44516129,14.6614973 3.52258065,14.6614973 C2.80967742,14.6614973 2.03387097,14.4737968 1.13225806,13.9941176 L1.13225806,16.2673797 C1.97096774,16.684492 2.80967742,16.8513369 3.77419355,16.8513369 C5.51451613,16.8513369 6.94032258,15.6625668 7.71612903,13.8064171 L13.5032258,0.12513369 L11.3225806,0.12513369 Z" fill="#B7B6BE" fill-rule="nonzero"></path>
                    <polygon fill="#B7B6BE" fill-rule="nonzero" points="3.18709677 0.959358289 2.83064516 0.145989305 2.66290323 0.145989305 2.66290323 0.959358289"></polygon>
                    <polyline fill="#B7B6BE" fill-rule="nonzero" points="10.8193548 0.145989305 10.5048387 0.959358289 11.3225806 0.959358289 11.3225806 0.12513369"></polyline>
                </g>
            </g>
            <path d="M38.9790323,12.5550802 C38.0774194,12.5550802 37.5532258,11.9294118 37.5532258,11.0534759 C37.5532258,10.1775401 38.0983871,9.55187166 38.9790323,9.55187166 C39.8806452,9.55187166 40.4048387,10.1775401 40.4048387,11.0534759 C40.4048387,11.9294118 39.8596774,12.5550802 38.9790323,12.5550802 Z" id="Path" fill="#B7B6BE" fill-rule="nonzero"></path>
        </g>
        <path d="M170,816 L354,816 L354,827 L170,827 L170,816 Z" id="Rectangle" fill="#3172F4" transform="translate(262.000000, 821.500000) scale(1, -1) translate(-262.000000, -821.500000) "></path>
        <path d="M434,816 L618,816 L618,827 L434,827 L434,816 Z" id="Rectangle-Copy-3" fill="#E1E1E1" transform="translate(526.000000, 821.500000) scale(1, -1) translate(-526.000000, -821.500000) "></path>
        <path d="M698,816 L882,816 L882,827 L698,827 L698,816 Z" id="Rectangle-Copy-4" fill="#0F0F0F" transform="translate(790.000000, 821.500000) scale(1, -1) translate(-790.000000, -821.500000) "></path>
        <text id="3172f4" font-family="ProductSans-Light, Product Sans Light" font-size="17" font-weight="normal" line-spacing="23" letter-spacing="1.89999998" fill="#2D1F1F">
            <tspan x="175" y="800">3172f</tspan>
            <tspan x="222.512" y="800">4</tspan>
        </text>
        <text id="e1e1e1" font-family="ProductSans-Light, Product Sans Light" font-size="17" font-weight="normal" line-spacing="23" letter-spacing="1.89999998" fill="#2D1F1F">
            <tspan x="434" y="800">e1e1e1</tspan>
        </text>
        <text id="0f0f0f" font-family="ProductSans-Light, Product Sans Light" font-size="17" font-weight="normal" line-spacing="23" letter-spacing="1.89999998" fill="#2D1F1F">
            <tspan x="696" y="800">0f0f0f</tspan>
        </text>
        <g id="identitylogo-copy-6" transform="translate(330.000000, 615.000000)">
            <path d="M0.77078853,70.4737968 L0.77078853,70.5438503" id="Path" stroke="#A8AFBA" stroke-width="0.5"></path>
            <path d="M25.1557348,71.3144385 L25.1557348,71.384492" id="Path" stroke="#A8AFBA" stroke-width="0.5"></path>
            <path d="M98.5908602,81.7524064 C98.5908602,108.722995 76.7284946,130.649733 49.7508961,130.649733 C22.7732975,130.649733 0.9109319,108.722995 0.9109319,81.7524064 C0.9109319,54.7818182 22.7732975,32.8550802 49.7508961,32.8550802 C76.7284946,32.8550802 98.5908602,54.7117647 98.5908602,81.7524064 Z" id="Path" stroke="#A8AFBA" stroke-width="0.5" stroke-linecap="round" stroke-linejoin="round" stroke-dasharray="0.7,0.7,0.7,0.7,0.7,0.7"></path>
            <path d="M25.0155914,12.1192513 C25.0155914,18.7743316 19.6200717,24.1684492 12.9632616,24.1684492 C6.30645161,24.1684492 0.9109319,18.7743316 0.9109319,12.1192513 C0.9109319,5.46417112 6.30645161,0.0700534759 12.9632616,0.0700534759 C19.6200717,0.0700534759 25.0155914,5.46417112 25.0155914,12.1192513" id="Path" fill="#3172F4" fill-rule="nonzero"></path>
            <g id="Group" transform="translate(0.700717, 32.224599)">
                <path d="M33.8446237,70.4037433 C38.1189964,73.4860963 43.3743728,75.3074866 49.0501792,75.3074866 C52.7639785,75.3074866 56.3376344,74.4668449 59.5609319,73.0657754 C61.102509,73.5561497 66.2177419,75.3074866 66.3578853,74.8171123 C66.4980287,74.4668449 65.30681,72.0850267 64.6060932,70.1235294 C70.8424731,65.4299465 74.9066308,57.9342246 74.9066308,49.457754 C74.9066308,35.1668449 63.3448029,23.6080214 49.0501792,23.6080214 C42.3933692,23.6080214 36.3672043,26.1299465 31.7424731,30.1930481 L31.8826165,48.9673797 L33.8446237,70.4037433 Z" id="Path"></path>
                <path d="M49.0501792,0.560427807 C42.883871,0.560427807 36.9978495,1.68128342 31.5322581,3.7828877 C14.3646953,10.3679144 1.8218638,26.2700535 0.280286738,45.3245989 L0.280286738,48.3368984 L0.280286738,53.5909091 C0.280286738,53.9411765 0.350358423,54.3614973 0.350358423,54.7117647 C2.10215054,66.4807487 8.96917563,76.8486631 19.7602151,84.5545455 C19.9003584,84.7647059 20.1105735,84.9748663 20.3207885,85.0449198 L24.0345878,91.4898396 C27.8184588,93.7315508 31.8826165,95.4828877 36.2270609,96.6737968 C40.2912186,97.7946524 44.5655914,98.3550802 49.0501792,98.3550802 C76.0978495,98.3550802 98.0302867,76.4283422 98.0302867,49.3877005 C97.9602151,22.4871658 76.0277778,0.560427807 49.0501792,0.560427807 Z M64.5360215,70.1935829 C65.2367384,72.1550802 66.427957,74.5368984 66.2878136,74.8871658 C66.1476703,75.3775401 60.9623656,73.6962567 59.4908602,73.1358289 C56.2675627,74.5368984 52.7639785,75.3775401 48.9801075,75.3775401 C43.3043011,75.3775401 38.0489247,73.5561497 33.774552,70.4737968 C27.327957,65.7101604 23.1236559,58.144385 23.1236559,49.5278075 C23.1236559,41.8919786 26.4170251,35.026738 31.6724014,30.2631016 C36.2270609,26.1299465 42.3232975,23.6780749 48.9801075,23.6780749 C63.2747312,23.6780749 74.8365591,35.2368984 74.8365591,49.5278075 C74.9066308,57.9342246 70.8424731,65.4299465 64.5360215,70.1935829 Z" id="Shape" fill="#3172F4" fill-rule="nonzero"></path>
                <path d="M23.1236559,49.5278075 C23.1236559,41.8919786 26.4170251,35.026738 31.6724014,30.2631016 L31.4621864,3.7828877 C14.2946237,10.3679144 1.75179211,26.2700535 0.210215054,45.3245989 L0.210215054,48.3368984 L0.210215054,53.5909091 C0.210215054,53.9411765 0.280286738,54.3614973 0.280286738,54.7117647 C2.03207885,66.4807487 8.89910394,76.8486631 19.6901434,84.5545455 C19.8302867,84.7647059 20.0405018,84.9748663 20.2507168,85.0449198 L23.9645161,91.4898396 C27.7483871,93.7315508 31.8125448,95.4828877 36.1569892,96.6737968 L33.774552,70.3336898 C27.327957,65.7101604 23.1236559,58.144385 23.1236559,49.5278075 Z" id="Path" fill="url(#linearGradient-6)" fill-rule="nonzero" opacity="0.3"></path>
            </g>
            <path d="M0.981003584,32.6449198 L0.981003584,39.7903743 L0.981003584,76.1481283 L0.981003584,76.3582888 L0.981003584,80.6315508 L0.981003584,86.3759358 C2.17222222,98.4251337 7.42759857,108.933155 15.766129,116.779144 C15.8362007,116.989305 15.9763441,117.199465 16.1865591,117.269519 L16.8172043,117.759893 C18.6390681,119.371123 20.5310036,120.842246 22.5630824,122.243316 L24.9455197,124.064706 L24.9455197,81.2620321 L24.9455197,47.3561497 C18.4989247,40.4909091 10.3005376,35.3069519 0.981003584,32.6449198" id="Path" fill="#3172F4" fill-rule="nonzero"></path>
            <g id="Group" transform="translate(34.335125, 35.026738)" fill-rule="nonzero">
                <path d="M53.3946237,15.8320856 L53.3946237,32.7149733 L53.3946237,51.8395722 C52.1333333,64.2390374 46.1772401,66.1304813 37.4182796,74.1165775 C35.1759857,76.1481283 32.7935484,78.0395722 30.2008961,79.6508021 L30.2008961,71.6647059 C28.5892473,71.244385 26.6973118,70.6139037 25.9265233,70.3336898 C22.7032258,71.7347594 19.1996416,72.5754011 15.4157706,72.5754011 C9.73996416,72.5754011 4.48458781,70.7540107 0.210215054,67.6716578 L2.59265233,94.0117647 C6.65681004,95.1326203 10.9311828,95.6930481 15.4157706,95.6930481 C42.4634409,95.6930481 64.3958781,73.7663102 64.3958781,46.7256684 C64.3258065,35.026738 60.2616487,24.3085561 53.3946237,15.8320856 Z" id="Path" fill="#3172F4"></path>
                <path d="M37.4182796,74.186631 C46.1772401,66.2705882 52.1333333,64.3791444 53.3946237,51.9096257 L53.3946237,32.7850267 L53.3946237,15.902139 C47.4385305,8.54652406 39.3802867,3.01229947 30.2008961,0.0700534759 L30.2008961,15.8320856 L30.2008961,25.5695187 C36.9277778,30.2631016 41.2722222,37.968984 41.2722222,46.7957219 C41.2722222,55.202139 37.2080645,62.697861 30.9716846,67.4614973 C31.6724014,69.4229947 32.8636201,71.8048128 32.7234767,72.1550802 C32.653405,72.3652406 31.5322581,72.1550802 30.2008961,71.8048128 L30.2008961,79.7909091 C32.7935484,78.0395722 35.1759857,76.2181818 37.4182796,74.186631 Z" id="Path" fill="#3172F4"></path>
                <path d="M41.2722222,70.8941176 C41.3422939,70.8941176 41.2722222,70.9641711 41.2722222,70.8941176 C47.9991039,65.359893 52.2734767,62.4877005 53.3946237,51.9096257 L53.3946237,32.7850267 L53.3946237,15.902139 C47.4385305,8.54652406 39.3802867,3.01229947 30.2008961,0.0700534759 L30.2008961,15.8320856 L30.2008961,25.5695187 C36.9277778,30.2631016 41.2722222,37.968984 41.2722222,46.7957219 C41.2722222,54.7117647 41.2722222,69.913369 41.2021505,70.9641711 C41.1320789,70.9641711 41.2021505,70.9641711 41.2722222,70.8941176 Z" id="Path" fill="url(#linearGradient-7)" opacity="0.3"></path>
            </g>
            <path d="M98.6609319,0 L98.6609319,64.168984 L98.6609319,83.2935829 C97.3996416,95.6930481 91.4435484,97.584492 82.6845878,105.570588 C80.4422939,107.602139 78.0598566,109.493583 75.4672043,111.104813 L75.4672043,76.9887701 L75.4672043,47.2160428 L75.4672043,14.2909091 C81.6335125,7.5657754 89.6216846,2.59197861 98.6609319,0" id="Path" fill="#3172F4" fill-rule="nonzero"></path>
            <g id="Group" transform="translate(124.727599, 32.224599)">
                <polygon id="Path" fill="#000000" fill-rule="nonzero" points="8.75896057 59.4754011 0.630645161 59.4754011 0.630645161 16.3224599 8.75896057 16.3224599"></polygon>
                <path d="M55.0062724,59.4754011 L47.088172,59.4754011 L47.088172,55.2721925 L46.9480287,55.2721925 C44.0050179,58.4946524 39.5905018,60.1759358 34.0548387,60.1759358 C20.5310036,60.1759358 13.7340502,50.928877 13.7340502,38.3192513 C13.7340502,25.4994652 20.5310036,16.042246 34.0548387,16.042246 C39.3802867,16.042246 44.1451613,18.0737968 46.9480287,21.2962567 L47.088172,21.2962567 L47.088172,0.210160428 L55.0062724,0.210160428 L55.0062724,59.4754011 Z M34.6154122,23.1877005 C25.3659498,23.1877005 21.6521505,29.6326203 21.6521505,38.1791444 C21.6521505,46.7256684 25.2258065,52.9604278 34.6154122,52.9604278 C44.0050179,52.9604278 47.5786738,46.7256684 47.5786738,38.1791444 C47.5786738,29.5625668 44.0750896,23.1877005 34.6154122,23.1877005 Z" id="Shape" fill="#000000" fill-rule="nonzero"></path>
                <path d="M101.463799,41.5417112 L66.9885305,41.5417112 L67.8293907,42.3823529 C69.0206093,49.0374332 73.3650538,53.1005348 81.0729391,53.1005348 C85.5575269,53.1005348 89.2713262,51.4893048 92.7048387,48.2668449 L98.1704301,53.731016 C93.3354839,58.144385 87.6596774,60.1759358 81.1430108,60.1759358 C66.427957,60.1759358 59.6310036,50.7187166 59.6310036,38.4593583 C59.6310036,25.4994652 67.4089606,16.042246 80.862724,16.042246 C95.087276,16.042246 101.814158,25.7096257 101.814158,38.4593583 C101.674014,39.440107 101.603943,40.4208556 101.463799,41.5417112 Z M94.1763441,34.6064171 L93.3354839,33.7657754 C92.0741935,27.2508021 88.0100358,23.0475936 80.7225806,23.0475936 C73.1548387,23.0475936 69.3008961,27.4609626 67.9695341,33.7657754 L67.0586022,34.6064171 L94.1763441,34.6064171 Z" id="Shape" fill="#000000" fill-rule="nonzero"></path>
                <path d="M145.468817,59.4754011 L137.550717,59.4754011 L137.550717,33.6256684 C137.550717,27.4609626 135.728853,23.1176471 126.479391,23.1176471 C119.542294,23.1176471 114.146774,26.9005348 114.146774,34.1860963 L114.146774,59.4754011 L106.228674,59.4754011 L106.228674,16.6727273 L114.146774,16.6727273 L114.146774,21.2962567 L114.286918,21.2962567 C117.229928,18.0037433 122.345161,15.9721925 127.390323,15.9721925 C138.53172,15.9721925 145.468817,21.8566845 145.468817,32.4347594 L145.468817,59.4754011 L145.468817,59.4754011 Z" id="Path" fill="#000000" fill-rule="nonzero"></path>
                <path d="M178.893011,55.0620321 C174.26828,58.5647059 170.484409,60.1759358 165.929749,60.1759358 C157.731362,60.1759358 152.966487,54.9219251 152.966487,46.2352941 L152.966487,24.3786096 L153.456989,23.5379679 L148.06147,23.5379679 L148.06147,16.6727273 L153.456989,16.6727273 L152.966487,15.8320856 L152.966487,4.27326203 L160.884588,0.0700534759 L160.884588,15.8320856 L160.464158,16.6727273 L173.917921,16.6727273 L173.917921,23.5379679 L160.464158,23.5379679 L160.884588,24.3786096 L160.884588,46.3053476 C160.884588,50.7887701 162.986738,53.0304813 166.280108,53.0304813 C168.942832,53.0304813 170.834767,52.1898396 173.637634,49.7379679 L178.893011,55.0620321 Z" id="Path" fill="#000000" fill-rule="nonzero"></path>
                <path d="M184.28853,10.297861 C181.275448,10.297861 179.523656,8.19625668 179.523656,5.2540107 C179.523656,2.31176471 181.34552,0.210160428 184.28853,0.210160428 C187.301613,0.210160428 189.053405,2.31176471 189.053405,5.2540107 C189.053405,8.19625668 187.231541,10.297861 184.28853,10.297861 Z M188.282616,58.7748663 L180.364516,58.7748663 L180.364516,15.9721925 L188.282616,15.9721925 L188.282616,58.7748663 Z" id="Shape" fill="#000000" fill-rule="nonzero"></path>
                <path d="M221.987097,55.0620321 C217.362366,58.5647059 213.578495,60.1759358 209.023835,60.1759358 C200.825448,60.1759358 196.060573,54.9219251 196.060573,46.2352941 L196.060573,24.3786096 L196.551075,23.5379679 L191.155556,23.5379679 L191.155556,16.6727273 L196.551075,16.6727273 L196.060573,15.8320856 L196.060573,4.27326203 L203.978674,0.0700534759 L203.978674,15.8320856 L203.558244,16.6727273 L217.012007,16.6727273 L217.012007,23.5379679 L203.558244,23.5379679 L203.978674,24.3786096 L203.978674,46.3053476 C203.978674,50.7887701 206.080824,53.0304813 209.374194,53.0304813 C212.036918,53.0304813 213.928853,52.1898396 216.73172,49.7379679 L221.987097,55.0620321 Z" id="Path" fill="#000000" fill-rule="nonzero"></path>
                <g transform="translate(220.725806, 9.106952)" id="Path">
                    <polygon points="21.5120072 27.4609626 23.4039427 33.2754011 23.544086 33.2754011 25.3659498 27.4609626 35.105914 3.22245989 10.6508961 3.22245989"></polygon>
                    <path d="M37.8387097,0.420320856 L37.8387097,3.22245989 L35.0358423,3.22245989 L25.2958781,27.4609626 L23.4740143,33.2053476 L23.333871,33.2053476 L21.4419355,27.4609626 L10.6508961,3.22245989 L8.89910394,3.22245989 L8.89910394,0.490374332 L0.630645161,0.490374332 L19.55,41.5417112 C17.3777778,46.8657754 14.8551971,49.2475936 11.772043,49.2475936 C9.38960573,49.2475936 6.79695341,48.6171123 3.78387097,47.0058824 L3.78387097,54.6417112 C6.58673835,56.0427807 9.38960573,56.6032086 12.6129032,56.6032086 C18.428853,56.6032086 23.1937276,52.6101604 25.7863799,46.3754011 L45.1261649,0.420320856 L37.8387097,0.420320856 Z" fill="#000000" fill-rule="nonzero"></path>
                    <polygon fill="#000000" fill-rule="nonzero" points="10.6508961 3.22245989 9.45967742 0.490374332 8.89910394 0.490374332 8.89910394 3.22245989"></polygon>
                    <polyline fill="#000000" fill-rule="nonzero" points="36.1569892 0.490374332 35.105914 3.22245989 37.8387097 3.22245989 37.8387097 0.420320856"></polyline>
                </g>
            </g>
            <path d="M130.263262,42.1721925 C127.250179,42.1721925 125.498387,40.0705882 125.498387,37.1283422 C125.498387,34.1860963 127.320251,32.084492 130.263262,32.084492 C133.276344,32.084492 135.028136,34.1860963 135.028136,37.1283422 C135.028136,40.0705882 133.206272,42.1721925 130.263262,42.1721925 Z" id="Path" fill="#000000" fill-rule="nonzero"></path>
        </g>
        <g id="Group-2" transform="translate(0.000000, 0.000000)">
            <rect id="Rectangle" fill="#033BC5" x="0" y="0" width="1050" height="529"></rect>
            <use id="Rectangle" stroke="url(#linearGradient-8)" mask="url(#mask-10)" stroke-width="3" opacity="0.216192336" stroke-dasharray="13" xlink:href="#path-9"></use>
            <use id="Rectangle-Copy" stroke="url(#linearGradient-8)" mask="url(#mask-12)" stroke-width="3" opacity="0.216192336" stroke-dasharray="13" xlink:href="#path-11"></use>
            <use id="Rectangle" stroke="url(#linearGradient-13)" mask="url(#mask-15)" stroke-width="3" opacity="0.216192336" stroke-dasharray="13" xlink:href="#path-14"></use>
            <use id="Rectangle-Copy-2" stroke="url(#linearGradient-13)" mask="url(#mask-17)" stroke-width="3" opacity="0.216192336" stroke-dasharray="13" xlink:href="#path-16"></use>
            <g id="identitylogo-copy-5" transform="translate(219.000000, 186.000000)">
                <path d="M87.5,101.45 L87.5,101.55" id="Path" stroke="#A8AFBA" stroke-width="0.5"></path>
                <path d="M121.5,102.45 L121.5,102.55" id="Path" stroke="#A8AFBA" stroke-width="0.5"></path>
                <path d="M34,17 C34,26.3895349 26.3895349,34 17,34 C7.61046512,34 0,26.3895349 0,17 C0,7.61046512 7.61046512,0 17,0 C26.3895349,0 34,7.61046512 34,17" id="Path" fill="#FFFFFF" fill-rule="nonzero" opacity="0.38546317"></path>
                <g id="Group" transform="translate(0.000000, 2.000000)">
                    <path d="M143.3,150.5 C149.4,154.9 156.9,157.5 165,157.5 C170.3,157.5 175.4,156.3 180,154.3 C182.2,155 189.5,157.5 189.7,156.8 C189.9,156.3 188.2,152.9 187.2,150.1 C196.1,143.4 201.9,132.7 201.9,120.6 C201.9,100.2 185.4,83.7 165,83.7 C155.5,83.7 146.9,87.3 140.3,93.1 L140.5,119.9 L143.3,150.5 Z" id="Path"></path>
                    <path d="M34,172.427014 L34,173 L30.619883,170.449808 C27.7368421,168.488123 25.0526316,166.428352 22.4678363,164.172414 L21.5730994,163.485824 C21.2748538,163.387739 21.0760234,163.093487 20.9766082,162.799234 C9.14619883,151.813793 1.69005848,137.101149 -2.84217094e-14,120.230651 L-2.84217094e-14,112.187739 L-2.84217094e-14,106.204598 L-2.84217094e-14,105.910345 L-2.84217094e-14,55.0045977 L-2.84217094e-14,45 C9.80436613,47.763746 18.7341454,52.4689683 26.4245499,58.6357943 C31.7466135,54.5166267 37.6900064,51.1527676 44.0888252,48.7042254 C51.7994269,45.7464789 60.1031519,44.1690141 68.8022923,44.1690141 C82.2269141,44.1690141 94.7659689,48.0085555 105.378223,54.6405145 L105.378223,20.1634016 C114.051083,10.674742 125.286377,3.65708754 138,0 L138,90.5376268 L138,117.521002 C137.827946,119.217757 137.59378,120.775051 137.299929,122.214257 C132.820547,155.95624 103.856552,182 68.8022923,182 C62.4756447,182 56.4455587,181.211268 50.7120344,179.633803 L50.6937018,179.431604 C44.758188,177.806711 39.1936207,175.441985 34,172.427011 Z M33.9999992,124.321747 C36.4017026,131.69688 41.1041182,138.031242 47.252149,142.56338 C47.2873432,142.588699 47.3225846,142.613957 47.357873,142.639155 L47.3510029,142.56338 C53.3685622,146.892397 60.7643317,149.454131 68.7523987,149.464756 C74.0717729,149.457546 78.9981462,148.27566 83.5315186,146.309859 C83.5487446,146.316404 83.5663313,146.323057 83.5842717,146.329817 C83.5996431,146.323173 83.6150101,146.316521 83.6303725,146.309859 C84.717765,146.704225 87.3868195,147.591549 89.6604585,148.183099 L89.6604585,148.273203 C91.5038148,148.777409 93.0314538,149.084937 93.1203438,148.774648 C93.3180516,148.28169 91.6375358,144.929577 90.6489971,142.169014 C99.5458453,135.464789 105.27937,124.915493 105.180516,113.084507 C105.180516,102.078431 100.296209,92.2237635 92.5686387,85.5561323 C91.6394134,84.7616311 90.6689128,84.0118086 89.6604585,83.3098592 L89.6604585,83.2921109 C83.7332187,79.1401211 76.5069731,76.7042254 68.7034384,76.7042254 C59.3123209,76.7042254 50.7120344,80.1549296 44.286533,85.971831 C39.5849269,90.2233087 35.9964212,95.6642292 34,101.816879 L34,113.070498 L34,124.321749 Z" id="Combined-Shape" fill="url(#linearGradient-18)" fill-rule="nonzero" opacity="0.518554688"></path>
                </g>
                <g id="Group" transform="translate(135.000000, 73.000000)"></g>
                <g id="Group" transform="translate(179.000000, 51.000000)" fill="#FFFFFF" fill-rule="nonzero" opacity="0.333054315">
                    <polygon id="Path" points="12.4671053 84.9 0.897631579 84.9 0.897631579 23.3 12.4671053 23.3"></polygon>
                    <path d="M78.2934211,84.9 L67.0231579,84.9 L67.0231579,78.9 L66.8236842,78.9 C62.6347368,83.5 56.3513158,85.9 48.4721053,85.9 C29.2228947,85.9 19.5484211,72.7 19.5484211,54.7 C19.5484211,36.4 29.2228947,22.9 48.4721053,22.9 C56.0521053,22.9 62.8342105,25.8 66.8236842,30.4 L67.0231579,30.4 L67.0231579,0.3 L78.2934211,0.3 L78.2934211,84.9 Z M49.27,33.1 C36.1047368,33.1 30.8186842,42.3 30.8186842,54.5 C30.8186842,66.7 35.9052632,75.6 49.27,75.6 C62.6347368,75.6 67.7213158,66.7 67.7213158,54.5 C67.7213158,42.2 62.7344737,33.1 49.27,33.1 Z" id="Shape"></path>
                    <path d="M144.418947,59.3 L95.3484211,59.3 L96.5452632,60.5 C98.2407895,70 104.424474,75.8 115.395526,75.8 C121.778684,75.8 127.064737,73.5 131.951842,68.9 L139.731316,76.7 C132.849474,83 124.770789,85.9 115.495263,85.9 C94.5505263,85.9 84.8760526,72.4 84.8760526,54.9 C84.8760526,36.4 95.9468421,22.9 115.096316,22.9 C135.342895,22.9 144.917632,36.7 144.917632,54.9 C144.718158,56.3 144.618421,57.7 144.418947,59.3 Z M134.046316,49.4 L132.849474,48.2 C131.054211,38.9 125.269474,32.9 114.896842,32.9 C104.125263,32.9 98.6397368,39.2 96.7447368,48.2 L95.4481579,49.4 L134.046316,49.4 Z" id="Shape"></path>
                    <path d="M207.053684,84.9 L195.783421,84.9 L195.783421,48 C195.783421,39.2 193.190263,33 180.025,33 C170.151053,33 162.471316,38.4 162.471316,48.8 L162.471316,84.9 L151.201053,84.9 L151.201053,23.8 L162.471316,23.8 L162.471316,30.4 L162.670789,30.4 C166.859737,25.7 174.140526,22.8 181.321579,22.8 C197.179737,22.8 207.053684,31.2 207.053684,46.3 L207.053684,84.9 L207.053684,84.9 Z" id="Path"></path>
                    <path d="M254.628158,78.6 C248.045526,83.6 242.659737,85.9 236.176842,85.9 C224.507632,85.9 217.725526,78.4 217.725526,66 L217.725526,34.8 L218.423684,33.6 L210.743947,33.6 L210.743947,23.8 L218.423684,23.8 L217.725526,22.6 L217.725526,6.1 L228.995789,0.1 L228.995789,22.6 L228.397368,23.8 L247.546842,23.8 L247.546842,33.6 L228.397368,33.6 L228.995789,34.8 L228.995789,66.1 C228.995789,72.5 231.987895,75.7 236.675526,75.7 C240.465526,75.7 243.158421,74.5 247.147895,71 L254.628158,78.6 Z" id="Path"></path>
                    <path d="M262.307895,14.7 C258.019211,14.7 255.525789,11.7 255.525789,7.5 C255.525789,3.3 258.118947,0.3 262.307895,0.3 C266.596579,0.3 269.09,3.3 269.09,7.5 C269.09,11.7 266.496842,14.7 262.307895,14.7 Z M267.992895,83.9 L256.722632,83.9 L256.722632,22.8 L267.992895,22.8 L267.992895,83.9 Z" id="Shape"></path>
                    <path d="M315.966316,78.6 C309.383684,83.6 303.997895,85.9 297.515,85.9 C285.845789,85.9 279.063684,78.4 279.063684,66 L279.063684,34.8 L279.761842,33.6 L272.082105,33.6 L272.082105,23.8 L279.761842,23.8 L279.063684,22.6 L279.063684,6.1 L290.333947,0.1 L290.333947,22.6 L289.735526,23.8 L308.885,23.8 L308.885,33.6 L289.735526,33.6 L290.333947,34.8 L290.333947,66.1 C290.333947,72.5 293.326053,75.7 298.013684,75.7 C301.803684,75.7 304.496579,74.5 308.486053,71 L315.966316,78.6 Z" id="Path"></path>
                    <g transform="translate(0.171053, -0.000000)" id="Path">
                        <path d="M7.82894737,14 C3.40247678,14 0.828947368,11.0833333 0.828947368,7 C0.828947368,2.91666667 3.50541796,1.13686838e-13 7.82894737,1.13686838e-13 C12.255418,1.13686838e-13 14.8289474,2.91666667 14.8289474,7 C14.8289474,11.0833333 12.1524768,14 7.82894737,14 Z"></path>
                        <path d="M367.857895,13.6 L367.857895,17.6 L363.868421,17.6 L350.005,52.2 L347.411842,60.4 L347.212368,60.4 L344.519474,52.2 L329.16,17.6 L326.666579,17.6 L326.666579,13.7 L314.897632,13.7 L341.826579,72.3 C338.734737,79.9 335.144211,83.3 330.755789,83.3 C327.364737,83.3 323.674474,82.4 319.385789,80.1 L319.385789,91 C323.375263,93 327.364737,93.8 331.952632,93.8 C340.230789,93.8 347.012895,88.1 350.703158,79.2 L378.230526,13.6 L367.857895,13.6 Z"></path>
                        <polygon points="329.16 17.6 327.464474 13.7 326.666579 13.7 326.666579 17.6"></polygon>
                        <polyline points="365.464211 13.7 363.968158 17.6 367.857895 17.6 367.857895 13.6"></polyline>
                    </g>
                </g>
            </g>
            <polygon id="X" fill="#FFFFFF" fill-rule="nonzero" opacity="0.346888951" points="188.77 155.34 184.54 149.112 185.962 149.112 189.472 154.404 189.544 154.404 193.09 149.112 194.476 149.112 190.264 155.34 194.71 162 193.324 162 189.544 156.33 189.472 156.33 185.692 162 184.306 162"></polygon>
            <polygon id="X" fill="#FFFFFF" fill-rule="nonzero" opacity="0.346888951" points="188.77 402.34 184.54 396.112 185.962 396.112 189.472 401.404 189.544 401.404 193.09 396.112 194.476 396.112 190.264 402.34 194.71 409 193.324 409 189.544 403.33 189.472 403.33 185.692 409 184.306 409"></polygon>
            <polygon id="X" fill="#FFFFFF" fill-rule="nonzero" opacity="0.346888951" points="803.77 155.34 799.54 149.112 800.962 149.112 804.472 154.404 804.544 154.404 808.09 149.112 809.476 149.112 805.264 155.34 809.71 162 808.324 162 804.544 156.33 804.472 156.33 800.692 162 799.306 162"></polygon>
            <polygon id="X" fill="#FFFFFF" fill-rule="nonzero" opacity="0.346888951" points="803.77 402.34 799.54 396.112 800.962 396.112 804.472 401.404 804.544 401.404 808.09 396.112 809.476 396.112 805.264 402.34 809.71 409 808.324 409 804.544 403.33 804.472 403.33 800.692 409 799.306 409"></polygon>
            <path d="M482.916,155.466 C482.423998,155.189999 482.016002,154.815002 481.692,154.341 C481.367998,153.866998 481.206,153.342003 481.206,152.766 C481.206,152.285998 481.295999,151.842002 481.476,151.434 C481.656001,151.025998 481.907998,150.672001 482.232,150.372 C482.556002,150.071999 482.942998,149.835001 483.393,149.661 C483.843002,149.486999 484.337997,149.4 484.878,149.4 C485.406003,149.4 485.894998,149.486999 486.345,149.661 C486.795002,149.835001 487.181998,150.071999 487.506,150.372 C487.830002,150.672001 488.084999,151.025998 488.271,151.434 C488.457001,151.842002 488.55,152.285998 488.55,152.766 C488.55,153.342003 488.385002,153.866998 488.055,154.341 C487.724998,154.815002 487.320002,155.189999 486.84,155.466 L486.84,155.538 C487.452003,155.826001 487.961998,156.227997 488.37,156.744 C488.778002,157.260003 488.982,157.895996 488.982,158.652 C488.982,159.156003 488.880001,159.629998 488.676,160.074 C488.471999,160.518002 488.187002,160.904998 487.821,161.235 C487.454998,161.565002 487.020003,161.822999 486.516,162.009 C486.011997,162.195001 485.466003,162.288 484.878,162.288 C484.277997,162.288 483.726003,162.195001 483.222,162.009 C482.717997,161.822999 482.286002,161.565002 481.926,161.235 C481.565998,160.904998 481.284001,160.518002 481.08,160.074 C480.875999,159.629998 480.774,159.156003 480.774,158.652 C480.774,157.895996 480.974998,157.260003 481.377,156.744 C481.779002,156.227997 482.291997,155.826001 482.916,155.538 L482.916,155.466 Z M481.944,158.598 C481.944,158.982002 482.021999,159.332998 482.178,159.651 C482.334001,159.969002 482.543999,160.241999 482.808,160.47 C483.072001,160.698001 483.383998,160.874999 483.744,161.001 C484.104002,161.127001 484.481998,161.19 484.878,161.19 C485.274002,161.19 485.648998,161.127001 486.003,161.001 C486.357002,160.874999 486.668999,160.698001 486.939,160.47 C487.209001,160.241999 487.421999,159.969002 487.578,159.651 C487.734001,159.332998 487.812,158.982002 487.812,158.598 C487.812,158.213998 487.737001,157.866002 487.587,157.554 C487.436999,157.241998 487.230001,156.972001 486.966,156.744 C486.701999,156.515999 486.390002,156.342001 486.03,156.222 C485.669998,156.101999 485.286002,156.042 484.878,156.042 C484.469998,156.042 484.086002,156.101999 483.726,156.222 C483.365998,156.342001 483.054001,156.515999 482.79,156.744 C482.525999,156.972001 482.319001,157.241998 482.169,157.554 C482.018999,157.866002 481.944,158.213998 481.944,158.598 Z M482.376,152.712 C482.376,153.420004 482.609998,153.977998 483.078,154.386 C483.546002,154.794002 484.145996,154.998 484.878,154.998 C485.598004,154.998 486.194998,154.794002 486.669,154.386 C487.143002,153.977998 487.38,153.420004 487.38,152.712 C487.38,152.363998 487.311001,152.052001 487.173,151.776 C487.034999,151.499999 486.852001,151.269001 486.624,151.083 C486.395999,150.896999 486.132002,150.753001 485.832,150.651 C485.531998,150.548999 485.214002,150.498 484.878,150.498 C484.541998,150.498 484.221002,150.548999 483.915,150.651 C483.608998,150.753001 483.342001,150.896999 483.114,151.083 C482.885999,151.269001 482.706001,151.499999 482.574,151.776 C482.441999,152.052001 482.376,152.363998 482.376,152.712 Z M502.40153,155.34 L498.17153,149.112 L499.59353,149.112 L503.10353,154.404 L503.17553,154.404 L506.72153,149.112 L508.10753,149.112 L503.89553,155.34 L508.34153,162 L506.95553,162 L503.17553,156.33 L503.10353,156.33 L499.32353,162 L497.93753,162 L502.40153,155.34 Z" id="8X" fill="#FFFFFF" fill-rule="nonzero" opacity="0.346888951"></path>
            <path d="M370.54,213.16 C370.333332,213.16 370.120001,213.128334 369.9,213.065 C369.679999,213.001666 369.471668,212.901667 369.275,212.765 C369.078332,212.628333 368.901667,212.451668 368.745,212.235 C368.588333,212.018332 368.47,211.760001 368.39,211.46 L368.97,211.22 C369.083334,211.640002 369.279999,211.966665 369.56,212.2 C369.840001,212.433334 370.166665,212.55 370.54,212.55 C370.766668,212.55 370.976666,212.513334 371.17,212.44 C371.363334,212.366666 371.531666,212.265001 371.675,212.135 C371.818334,212.004999 371.93,211.850001 372.01,211.67 C372.09,211.489999 372.13,211.293334 372.13,211.08 C372.13,210.879999 372.088334,210.695001 372.005,210.525 C371.921666,210.354999 371.808334,210.206667 371.665,210.08 C371.521666,209.953333 371.353334,209.855 371.16,209.785 C370.966666,209.715 370.756668,209.68 370.53,209.68 L369.95,209.68 L369.95,209.08 L370.52,209.08 C370.906669,209.08 371.231665,208.970001 371.495,208.75 C371.758335,208.529999 371.89,208.223335 371.89,207.83 C371.89,207.656666 371.855,207.495001 371.785,207.345 C371.715,207.194999 371.618334,207.065001 371.495,206.955 C371.371666,206.844999 371.226668,206.76 371.06,206.7 C370.893332,206.64 370.713334,206.61 370.52,206.61 C370.313332,206.61 370.131667,206.641666 369.975,206.705 C369.818333,206.768334 369.683334,206.849999 369.57,206.95 C369.456666,207.05 369.365,207.163333 369.295,207.29 C369.225,207.416667 369.17,207.539999 369.13,207.66 L368.55,207.41 C368.596667,207.256666 368.671666,207.096667 368.775,206.93 C368.878334,206.763332 369.011666,206.611667 369.175,206.475 C369.338334,206.338333 369.531666,206.225 369.755,206.135 C369.978334,206.045 370.233332,206 370.52,206 C370.813335,206 371.083332,206.046666 371.33,206.14 C371.576668,206.233334 371.789999,206.359999 371.97,206.52 C372.150001,206.680001 372.29,206.871666 372.39,207.095 C372.490001,207.318334 372.54,207.559999 372.54,207.82 C372.54,208.020001 372.511667,208.201666 372.455,208.365 C372.398333,208.528334 372.323334,208.671666 372.23,208.795 C372.136666,208.918334 372.030001,209.025 371.91,209.115 C371.789999,209.205 371.666667,209.28 371.54,209.34 L371.54,209.38 C371.880002,209.506667 372.171665,209.713332 372.415,210 C372.658335,210.286668 372.78,210.643331 372.78,211.07 C372.78,211.376668 372.721667,211.658332 372.605,211.915 C372.488333,212.171668 372.328334,212.391666 372.125,212.575 C371.921666,212.758334 371.683335,212.901666 371.41,213.005 C371.136665,213.108334 370.846668,213.16 370.54,213.16 Z M375.501765,213 L378.471765,205.84 L379.081765,205.84 L376.111765,213 L375.501765,213 Z M384.57353,213 L384.57353,211.43 L381.20353,211.43 L381.20353,210.99 L384.49353,206.16 L385.21353,206.16 L385.21353,210.83 L386.09353,210.83 L386.09353,211.43 L385.21353,211.43 L385.21353,213 L384.57353,213 Z M384.57353,207.1 L384.53353,207.1 L381.98353,210.83 L384.57353,210.83 L384.57353,207.1 Z" id="3/4" fill="#FFFFFF" fill-rule="nonzero" opacity="0.346888951"></path>
            <path d="M370.15,359.32 C369.943332,359.32 369.730001,359.288334 369.51,359.225 C369.289999,359.161666 369.081668,359.061667 368.885,358.925 C368.688332,358.788333 368.511667,358.611668 368.355,358.395 C368.198333,358.178332 368.08,357.920002 368,357.62 L368.58,357.38 C368.693334,357.800002 368.889999,358.126666 369.17,358.36 C369.450001,358.593334 369.776665,358.71 370.15,358.71 C370.376668,358.71 370.586666,358.673334 370.78,358.6 C370.973334,358.526666 371.141666,358.425001 371.285,358.295 C371.428334,358.164999 371.54,358.010001 371.62,357.83 C371.7,357.649999 371.74,357.453334 371.74,357.24 C371.74,357.039999 371.698334,356.855001 371.615,356.685 C371.531666,356.514999 371.418334,356.366667 371.275,356.24 C371.131666,356.113333 370.963334,356.015 370.77,355.945 C370.576666,355.875 370.366668,355.84 370.14,355.84 L369.56,355.84 L369.56,355.24 L370.13,355.24 C370.516669,355.24 370.841665,355.130001 371.105,354.91 C371.368335,354.689999 371.5,354.383335 371.5,353.99 C371.5,353.816666 371.465,353.655001 371.395,353.505 C371.325,353.354999 371.228334,353.225001 371.105,353.115 C370.981666,353.004999 370.836668,352.92 370.67,352.86 C370.503333,352.8 370.323334,352.77 370.13,352.77 C369.923332,352.77 369.741667,352.801666 369.585,352.865 C369.428333,352.928334 369.293334,353.009999 369.18,353.11 C369.066666,353.21 368.975,353.323333 368.905,353.45 C368.835,353.576667 368.78,353.699999 368.74,353.82 L368.16,353.57 C368.206667,353.416666 368.281666,353.256667 368.385,353.09 C368.488334,352.923333 368.621666,352.771667 368.785,352.635 C368.948334,352.498333 369.141666,352.385 369.365,352.295 C369.588334,352.205 369.843332,352.16 370.13,352.16 C370.423335,352.16 370.693332,352.206666 370.94,352.3 C371.186668,352.393334 371.399999,352.519999 371.58,352.68 C371.760001,352.840001 371.9,353.031666 372,353.255 C372.100001,353.478334 372.15,353.719999 372.15,353.98 C372.15,354.180001 372.121667,354.361666 372.065,354.525 C372.008333,354.688334 371.933334,354.831666 371.84,354.955 C371.746666,355.078334 371.640001,355.185 371.52,355.275 C371.399999,355.365 371.276667,355.44 371.15,355.5 L371.15,355.54 C371.490002,355.666667 371.781665,355.873332 372.025,356.16 C372.268335,356.446668 372.39,356.803331 372.39,357.23 C372.39,357.536668 372.331667,357.818332 372.215,358.075 C372.098333,358.331668 371.938334,358.551666 371.735,358.735 C371.531666,358.918334 371.293335,359.061666 371.02,359.165 C370.746665,359.268334 370.456668,359.32 370.15,359.32 Z M375.111765,359.16 L378.081765,352 L378.691765,352 L375.721765,359.16 L375.111765,359.16 Z M384.18353,359.16 L384.18353,357.59 L380.81353,357.59 L380.81353,357.15 L384.10353,352.32 L384.82353,352.32 L384.82353,356.99 L385.70353,356.99 L385.70353,357.59 L384.82353,357.59 L384.82353,359.16 L384.18353,359.16 Z M384.18353,353.26 L384.14353,353.26 L381.59353,356.99 L384.18353,356.99 L384.18353,353.26 Z" id="3/4-copy" fill="#FFFFFF" fill-rule="nonzero" opacity="0.346888951"></path>
            <path d="M482.916,402.466 C482.423998,402.189999 482.016002,401.815002 481.692,401.341 C481.367998,400.866998 481.206,400.342003 481.206,399.766 C481.206,399.285998 481.295999,398.842002 481.476,398.434 C481.656001,398.025998 481.907998,397.672001 482.232,397.372 C482.556002,397.071998 482.942998,396.835001 483.393,396.661 C483.843002,396.486999 484.337997,396.4 484.878,396.4 C485.406003,396.4 485.894998,396.486999 486.345,396.661 C486.795002,396.835001 487.181998,397.071998 487.506,397.372 C487.830002,397.672001 488.084999,398.025998 488.271,398.434 C488.457001,398.842002 488.55,399.285998 488.55,399.766 C488.55,400.342003 488.385002,400.866998 488.055,401.341 C487.724998,401.815002 487.320002,402.189999 486.84,402.466 L486.84,402.538 C487.452003,402.826001 487.961998,403.227997 488.37,403.744 C488.778002,404.260003 488.982,404.895996 488.982,405.652 C488.982,406.156003 488.880001,406.629998 488.676,407.074 C488.471999,407.518002 488.187002,407.904998 487.821,408.235 C487.454998,408.565002 487.020003,408.822999 486.516,409.009 C486.011997,409.195001 485.466003,409.288 484.878,409.288 C484.277997,409.288 483.726003,409.195001 483.222,409.009 C482.717997,408.822999 482.286002,408.565002 481.926,408.235 C481.565998,407.904998 481.284001,407.518002 481.08,407.074 C480.875999,406.629998 480.774,406.156003 480.774,405.652 C480.774,404.895996 480.974998,404.260003 481.377,403.744 C481.779002,403.227997 482.291997,402.826001 482.916,402.538 L482.916,402.466 Z M481.944,405.598 C481.944,405.982002 482.021999,406.332998 482.178,406.651 C482.334001,406.969002 482.543999,407.241999 482.808,407.47 C483.072001,407.698001 483.383998,407.874999 483.744,408.001 C484.104002,408.127001 484.481998,408.19 484.878,408.19 C485.274002,408.19 485.648998,408.127001 486.003,408.001 C486.357002,407.874999 486.668999,407.698001 486.939,407.47 C487.209001,407.241999 487.421999,406.969002 487.578,406.651 C487.734001,406.332998 487.812,405.982002 487.812,405.598 C487.812,405.213998 487.737001,404.866002 487.587,404.554 C487.436999,404.241998 487.230001,403.972001 486.966,403.744 C486.701999,403.515999 486.390002,403.342001 486.03,403.222 C485.669998,403.101999 485.286002,403.042 484.878,403.042 C484.469998,403.042 484.086002,403.101999 483.726,403.222 C483.365998,403.342001 483.054001,403.515999 482.79,403.744 C482.525999,403.972001 482.319001,404.241998 482.169,404.554 C482.018999,404.866002 481.944,405.213998 481.944,405.598 Z M482.376,399.712 C482.376,400.420004 482.609998,400.977998 483.078,401.386 C483.546002,401.794002 484.145996,401.998 484.878,401.998 C485.598004,401.998 486.194998,401.794002 486.669,401.386 C487.143002,400.977998 487.38,400.420004 487.38,399.712 C487.38,399.363998 487.311001,399.052001 487.173,398.776 C487.034999,398.499999 486.852001,398.269001 486.624,398.083 C486.395999,397.896999 486.132002,397.753001 485.832,397.651 C485.531998,397.548999 485.214002,397.498 484.878,397.498 C484.541998,397.498 484.221002,397.548999 483.915,397.651 C483.608998,397.753001 483.342001,397.896999 483.114,398.083 C482.885999,398.269001 482.706001,398.499999 482.574,398.776 C482.441999,399.052001 482.376,399.363998 482.376,399.712 Z M502.40153,402.34 L498.17153,396.112 L499.59353,396.112 L503.10353,401.404 L503.17553,401.404 L506.72153,396.112 L508.10753,396.112 L503.89553,402.34 L508.34153,409 L506.95553,409 L503.17553,403.33 L503.10353,403.33 L499.32353,409 L497.93753,409 L502.40153,402.34 Z" id="8X" fill="#FFFFFF" fill-rule="nonzero" opacity="0.346888951"></path>
            <path d="M190.572,273.288 C190.199998,273.288 189.816002,273.231001 189.42,273.117 C189.023998,273.002999 188.649002,272.823001 188.295,272.577 C187.940998,272.330999 187.623001,272.013002 187.341,271.623 C187.058999,271.232998 186.846001,270.768003 186.702,270.228 L187.746,269.796 C187.950001,270.552004 188.303997,271.139998 188.808,271.56 C189.312003,271.980002 189.899997,272.19 190.572,272.19 C190.980002,272.19 191.357998,272.124001 191.706,271.992 C192.054002,271.859999 192.356999,271.677001 192.615,271.443 C192.873001,271.208999 193.073999,270.930002 193.218,270.606 C193.362001,270.281998 193.434,269.928002 193.434,269.544 C193.434,269.183998 193.359001,268.851002 193.209,268.545 C193.058999,268.238998 192.855001,267.972001 192.597,267.744 C192.338999,267.515999 192.036002,267.339001 191.688,267.213 C191.339998,267.086999 190.962002,267.024 190.554,267.024 L189.51,267.024 L189.51,265.944 L190.536,265.944 C191.232003,265.944 191.816998,265.746002 192.291,265.35 C192.765002,264.953998 193.002,264.402004 193.002,263.694 C193.002,263.381998 192.939001,263.091001 192.813,262.821 C192.686999,262.550999 192.513001,262.317001 192.291,262.119 C192.068999,261.920999 191.808001,261.768001 191.508,261.66 C191.207999,261.551999 190.884002,261.498 190.536,261.498 C190.163998,261.498 189.837001,261.554999 189.555,261.669 C189.272999,261.783001 189.030001,261.929999 188.826,262.11 C188.621999,262.290001 188.457001,262.493999 188.331,262.722 C188.204999,262.950001 188.106,263.171999 188.034,263.388 L186.99,262.938 C187.074,262.661999 187.208999,262.374002 187.395,262.074 C187.581001,261.773999 187.820999,261.501001 188.115,261.255 C188.409001,261.008999 188.756998,260.805001 189.159,260.643 C189.561002,260.480999 190.019997,260.4 190.536,260.4 C191.064003,260.4 191.549998,260.483999 191.994,260.652 C192.438002,260.820001 192.821998,261.047999 193.146,261.336 C193.470002,261.624001 193.721999,261.968998 193.902,262.371 C194.082001,262.773002 194.172,263.207998 194.172,263.676 C194.172,264.036002 194.121001,264.362999 194.019,264.657 C193.916999,264.951001 193.782001,265.208999 193.614,265.431 C193.445999,265.653001 193.254001,265.844999 193.038,266.007 C192.821999,266.169001 192.600001,266.303999 192.372,266.412 L192.372,266.484 C192.984003,266.712001 193.508998,267.083997 193.947,267.6 C194.385002,268.116003 194.604,268.757996 194.604,269.526 C194.604,270.078003 194.499001,270.584998 194.289,271.047 C194.078999,271.509002 193.791002,271.904998 193.425,272.235 C193.058998,272.565002 192.630002,272.822999 192.138,273.009 C191.645998,273.195001 191.124003,273.288 190.572,273.288 Z M192.552,295 L190.014,291.364 L187.512,295 L186.162,295 L189.348,290.518 L186.27,286.18 L187.602,286.18 L190.032,289.654 L192.426,286.18 L193.794,286.18 L190.68,290.518 L193.902,295 L192.552,295 Z" id="3x" fill="#FFFFFF" fill-rule="nonzero" opacity="0.346888951"></path>
            <path d="M804.572,274.288 C804.199998,274.288 803.816002,274.231001 803.42,274.117 C803.023998,274.002999 802.649002,273.823001 802.295,273.577 C801.940998,273.330999 801.623001,273.013002 801.341,272.623 C801.058999,272.232998 800.846001,271.768003 800.702,271.228 L801.746,270.796 C801.950001,271.552004 802.303997,272.139998 802.808,272.56 C803.312003,272.980002 803.899997,273.19 804.572,273.19 C804.980002,273.19 805.357998,273.124001 805.706,272.992 C806.054002,272.859999 806.356999,272.677001 806.615,272.443 C806.873001,272.208999 807.073999,271.930002 807.218,271.606 C807.362001,271.281998 807.434,270.928002 807.434,270.544 C807.434,270.183998 807.359001,269.851002 807.209,269.545 C807.058999,269.238998 806.855001,268.972001 806.597,268.744 C806.338999,268.515999 806.036002,268.339001 805.688,268.213 C805.339998,268.086999 804.962002,268.024 804.554,268.024 L803.51,268.024 L803.51,266.944 L804.536,266.944 C805.232003,266.944 805.816998,266.746002 806.291,266.35 C806.765002,265.953998 807.002,265.402004 807.002,264.694 C807.002,264.381998 806.939001,264.091001 806.813,263.821 C806.686999,263.550999 806.513001,263.317001 806.291,263.119 C806.068999,262.920999 805.808002,262.768001 805.508,262.66 C805.207999,262.551999 804.884002,262.498 804.536,262.498 C804.163998,262.498 803.837001,262.554999 803.555,262.669 C803.272999,262.783001 803.030001,262.929999 802.826,263.11 C802.621999,263.290001 802.457001,263.493999 802.331,263.722 C802.204999,263.950001 802.106,264.171999 802.034,264.388 L800.99,263.938 C801.074,263.661999 801.208999,263.374002 801.395,263.074 C801.581001,262.773999 801.820999,262.501001 802.115,262.255 C802.409001,262.008999 802.756998,261.805001 803.159,261.643 C803.561002,261.480999 804.019997,261.4 804.536,261.4 C805.064003,261.4 805.549998,261.483999 805.994,261.652 C806.438002,261.820001 806.821998,262.047999 807.146,262.336 C807.470002,262.624001 807.721999,262.968998 807.902,263.371 C808.082001,263.773002 808.172,264.207998 808.172,264.676 C808.172,265.036002 808.121001,265.362999 808.019,265.657 C807.916999,265.951001 807.782001,266.208999 807.614,266.431 C807.445999,266.653001 807.254001,266.844999 807.038,267.007 C806.821999,267.169001 806.600001,267.303999 806.372,267.412 L806.372,267.484 C806.984003,267.712001 807.508998,268.083997 807.947,268.6 C808.385002,269.116003 808.604,269.757996 808.604,270.526 C808.604,271.078003 808.499001,271.584998 808.289,272.047 C808.078999,272.509002 807.791002,272.904998 807.425,273.235 C807.058998,273.565002 806.630002,273.822999 806.138,274.009 C805.645998,274.195001 805.124003,274.288 804.572,274.288 Z M806.552,296 L804.014,292.364 L801.512,296 L800.162,296 L803.348,291.518 L800.27,287.18 L801.602,287.18 L804.032,290.654 L806.426,287.18 L807.794,287.18 L804.68,291.518 L807.902,296 L806.552,296 Z" id="3x" fill="#FFFFFF" fill-rule="nonzero" opacity="0.346888951"></path>
        </g>
        <path d="M357.3,187 L357.3,374" id="Path-2" stroke="#FFFFFF" opacity="0.15" stroke-dasharray="15"></path>
        <path d="M398.5,187 L398.5,374" id="Path-2-Copy" stroke="#FFFFFF" opacity="0.152832031" stroke-dasharray="15"></path>
        <path d="M398.5,321.9 L777.171053,321.9" id="Path-3" stroke="#FFFFFF" opacity="0.152832031" stroke-dasharray="15"></path>
        <path d="M403.2,250.5 L781.871053,250.5" id="Path-3-Copy-2" stroke="#FFFFFF" opacity="0.152832031" stroke-dasharray="15"></path>
        <path d="M357,331.5 L776.871053,331.5" id="Path-3-Copy" stroke="#FFFFFF" opacity="0.152832031" stroke-dasharray="15"></path>
        <path d="M357,237.5 L776.871053,237.5" id="Path-3-Copy-3" stroke="#FFFFFF" opacity="0.152832031" stroke-dasharray="15"></path>
    </g>
</svg>